<?xml  version="1.0" encoding="UTF-8"?>
<!DOCTYPE svg PUBLIC "-//W3C//DTD SVG 1.0//EN" "http://www.w3.org/TR/2001/REC-SVG-20010904/DTD/svg10.dtd" >
<svg xmlns="http://www.w3.org/2000/svg" >
<metadata>
<version>1.0</version>
<id><![CDATA[VAG Rounded W01 Bold]]></id>
<vendor>Monotype Imaging Inc.</vendor>
<credits>
<name>Fonts.com WebFonts</name>
<URL>http://webfonts.fonts.com</URL>
<role>Home of the Web fonts</role>
</credits>
<license>
<URL>http://webfonts.fonts.com/Legal</URL>
</license>
<copyright><![CDATA[Part of the digitally encoded machine readable outline data for producing the Typefaces provided is copyrighted © 2008 Linotype GmbH, www.linotype.com. All rights reserved. This software is the property of Linotype GmbH, and may not be reproduced, used, displayed, modified, disclosed or transferred without the express written approval of Linotype GmbH.  The digitally encoded machine readable software for producing the Typefaces licensed to you is copyrighted (c) 1989, 1995 Adobe Systems. All Rights Reserved. This software is the property of Adobe Systems Incorporated and its licensors, and may not be reproduced, used, displayed, modified, disclosed or transferred without the express written approval of Adobe. VAG Rounded is a trademark of Linotype GmbH and may be registered in certain jurisdictions. This typeface is original artwork of Volkswagen, 1979. The design may be protected in certain jurisdictions.]]></copyright>
<trademark><![CDATA[VAG Rounded is a trademark of Linotype GmbH and may be registered in certain jurisdictions.]]></trademark>
<licensee>
<name></name>
</licensee>
</metadata>
<defs >
<font horiz-adv-x="518" id="40964335-0b3a-4c89-895c-1e8f58438faa">
<font-face font-family="" panose-1="2 15 8 2 2 2 4 2 2 4" ascent="939" descent="-310" units-per-em="1000" alphabetic="0">
</font-face>
<missing-glyph horiz-adv-x="0" />

<glyph unicode="&#xA;" />
<glyph unicode="&#xD;" horiz-adv-x="0" />
<glyph unicode=" " horiz-adv-x="268" />
<glyph unicode="!" horiz-adv-x="334" d="M95 656Q95 688 115 706T167 724Q197 724 218 706T239 656V271Q239 240 218 222T167 203Q136 203 116 221T95 271V656ZM167 -12Q135 -12 112 11T89 66Q89 98 112 121T167 144Q199 144 222 121T245 66Q245 34 222 11T167 -12Z"  />
<glyph unicode="&quot;" horiz-adv-x="444" d="M253 664Q253 691 269 707T313 724Q341 724 357 708T373 664V494Q373 467 357 451T313 434Q285 434 269 450T253 494V664ZM71 664Q71 691 87 707T131 724Q159 724 175 708T191 664V494Q191 467 175 451T131 434Q103 434 87 450T71 494V664Z"  />
<glyph unicode="#" horiz-adv-x="600" d="M164 413H78Q53 413 42 428T30 461Q30 479 41 494T78 509H178L200 670Q204 697 215 707T250 718Q268 718 282 707T296 678Q296 672 296 670T296 667T296 663T294 654L274 509H370L392 670Q396 697 407 707T442 718Q460 718 474 707T488 678Q488 672 488 670T488 667T488 663T486 654L466 509H552Q577 509 588 494T600 461Q600 443 589 428T552 413H452L436 299H522Q547 299 558 284T570 251Q570 233 559 218T522 203H422L400 42Q396 15 385 5T350 -6Q332 -6 318 5T304 34Q304 40 304 42T304 45T304 49T306 58L326 203H230L208 42Q204 15 193 5T158 -6Q140 -6 126 5T112 34Q112 40 112 42T112 45T112 49T114 58L134 203H48Q23 203 12 218T0 251Q0 269 11 284T48 299H148L164 413ZM245 299H340L356 413H261L245 299Z"  />
<glyph unicode="$" horiz-adv-x="537" d="M291 137Q323 145 339 167T356 218Q356 243 338 258T291 283V137ZM237 576Q214 570 199 555T184 515Q184 495 198 483T237 462V576ZM237 300Q201 310 163 322T94 355T42 409T22 497Q22 545 39 584T85 653T153 699T237 722V724V753Q237 773 240 786T264 800Q284 800 287 787T291 753V722Q313 721 343 716T401 700T447 670T466 624Q466 595 448 573T399 550Q386 550 374 553T349 561T322 570T291 577V444Q327 433 367 420T440 382T496 319T518 220Q518 170 500 130T452 60T380 13T291 -9V-12V-41Q291 -58 288 -73T264 -88Q244 -88 241 -73T237 -41V-10Q207 -9 169 -4T98 13T42 47T19 100Q19 129 37 150T86 171Q102 171 119 166T156 155T195 142T237 133V300Z"  />
<glyph unicode="%" horiz-adv-x="722" d="M185 503Q210 503 223 520T237 562Q237 586 224 604T185 622Q160 622 147 604T133 562Q133 538 146 521T185 503ZM480 698Q490 717 499 723T526 730Q549 730 567 714T585 674Q585 668 584 662T577 644L241 15Q230 -1 222 -9T196 -18Q176 -18 158 -2T139 37Q139 48 142 58T149 74L480 698ZM185 401Q152 401 124 414T75 449T43 500T31 562Q31 595 42 624T74 675T123 711T185 724Q218 724 246 711T295 676T327 624T339 562Q339 529 328 500T296 449T247 414T185 401ZM537 -12Q504 -12 476 1T427 36T395 87T383 149Q383 182 394 211T426 262T475 298T537 311Q570 311 598 298T647 263T679 211T691 149Q691 116 680 87T648 36T599 1T537 -12ZM537 90Q562 90 575 107T589 149Q589 173 576 191T537 209Q512 209 499 191T485 149Q485 125 498 108T537 90Z"  />
<glyph unicode="&amp;" horiz-adv-x="704" d="M254 339Q220 317 194 289T168 218Q168 170 197 145T272 120Q313 120 341 135T399 178L254 339ZM501 276L540 321Q560 344 576 355T616 367Q638 367 654 350T671 304Q671 284 656 260T616 209L591 182L659 105Q670 93 675 83T681 55Q681 29 661 9T611 -12Q594 -12 582 -7T558 11L489 83Q440 40 388 14T269 -12Q219 -12 175 2T97 43T44 111T24 204Q24 241 36 273T68 333T116 382T175 421Q146 450 128 482T109 556Q109 599 127 630T175 683T242 714T319 724Q353 724 389 715T455 686T504 637T523 567Q523 537 512 511T484 462T443 422T396 392L501 276ZM385 552Q385 569 379 580T362 598T341 607T319 610Q309 610 299 607T279 597T265 581T259 560Q259 537 271 520T312 474Q323 480 336 487T360 505T378 526T385 552Z"  />
<glyph unicode="&apos;" horiz-adv-x="240" d="M60 664Q60 691 76 707T120 724Q148 724 164 708T180 664V494Q180 467 164 451T120 434Q92 434 76 450T60 494V664Z"  />
<glyph unicode="(" horiz-adv-x="241" d="M172 724Q197 724 216 708T236 666Q236 661 234 652T228 633T222 614T217 600Q192 523 179 445T165 285Q165 212 176 135T211 -11Q213 -16 217 -27T225 -51T233 -75T236 -90Q236 -119 219 -136T172 -154Q154 -154 142 -143T120 -116Q100 -82 85 -30T60 79T44 191T39 285Q39 308 41 344T49 421T63 507T83 590T108 661T139 711Q145 718 154 721T172 724Z"  />
<glyph unicode=")" horiz-adv-x="241" d="M69 -154Q44 -154 25 -138T5 -96Q5 -91 7 -82T13 -63T19 -44T24 -30Q49 47 62 125T76 285Q76 358 65 435T30 581Q28 586 24 597T16 621T8 645T5 660Q5 689 22 706T69 724Q87 724 99 713T121 686Q141 651 156 599T181 491T197 379T202 285Q202 262 200 226T192 149T178 63T158 -20T133 -92T102 -141Q96 -148 87 -151T69 -154Z"  />
<glyph unicode="*" horiz-adv-x="389" d="M194 718Q214 718 229 708T245 672Q245 660 242 643T237 609Q258 624 274 637T308 650Q331 650 345 632T360 592Q360 578 352 569T332 553T306 541T280 530Q292 524 306 520T332 509T352 493T360 469Q360 447 346 429T308 410Q291 410 275 423T237 452Q239 436 242 419T245 389Q245 364 230 354T194 343Q174 343 159 353T143 389Q143 401 146 418T151 452Q129 437 113 424T79 410Q56 410 43 428T29 469Q29 483 37 492T57 508T83 519T108 530Q97 536 83 541T57 552T37 568T29 592Q29 614 42 632T79 650Q96 650 112 637T151 609Q149 625 146 642T143 672Q143 697 158 707T194 718Z"  />
<glyph unicode="+" horiz-adv-x="600" d="M240 458Q240 485 256 501T300 518Q328 518 344 502T360 458V313H505Q533 313 549 297T565 253Q565 226 549 210T505 193H360V48Q360 21 344 5T300 -12Q272 -12 256 4T240 48V193H95Q67 193 51 209T35 253Q35 280 51 296T95 313H240V458Z"  />
<glyph unicode="&#x2c;" horiz-adv-x="268" d="M115 -100Q106 -117 88 -125T58 -134Q31 -134 11 -115T-10 -68Q-10 -57 -7 -48T2 -28L85 122Q95 139 113 147T143 156Q170 156 191 137T212 90Q212 79 208 70T199 50L115 -100Z"  />
<glyph unicode="-" horiz-adv-x="389" d="M301 353Q329 351 343 334T358 289Q358 263 344 246T301 227H88Q60 229 46 246T31 289Q31 316 45 333T88 353H301Z"  />
<glyph unicode="." horiz-adv-x="268" d="M56 66Q56 98 79 121T134 144Q166 144 189 121T212 66Q212 34 189 11T134 -12Q102 -12 79 11T56 66Z"  />
<glyph unicode="/" horiz-adv-x="407" d="M284 687Q291 704 303 714T340 724Q365 724 382 708T399 669Q399 662 390 641L124 25Q116 8 104 -2T68 -12Q43 -12 26 4T8 43Q8 50 17 71L284 687Z"  />
<glyph unicode="0" horiz-adv-x="574" d="M287 124Q325 124 347 150T380 213T393 289T396 356Q396 384 394 424T380 500T347 562T287 588Q249 588 227 563T194 501T181 424T178 356Q178 329 180 290T194 214T227 151T287 124ZM287 -12Q211 -12 160 22T79 111T35 230T22 356Q22 417 35 482T78 601T160 689T287 724Q363 724 413 690T495 601T539 482T552 356Q552 295 539 230T495 111T414 23T287 -12Z"  />
<glyph unicode="1" horiz-adv-x="370" d="M152 574H93Q57 574 41 595T25 643Q25 669 43 690T93 712H235Q267 712 284 692T302 641V72Q302 34 281 14T227 -6Q195 -6 174 14T152 72V574Z"  />
<glyph unicode="2" horiz-adv-x="574" d="M451 132Q484 132 506 117T529 66Q529 31 508 16T457 0H123Q90 0 68 15T45 66Q45 82 52 95T68 117Q131 192 195 262T317 416Q331 436 341 459T352 509Q352 540 332 563T280 586Q251 586 235 574T210 544T195 505T182 466T161 436T124 424Q88 424 70 446T51 497Q51 544 70 585T122 657T197 706T286 724Q332 724 372 710T443 668T490 603T508 516Q508 464 483 413T420 312T342 218T268 132H451Z"  />
<glyph unicode="3" horiz-adv-x="574" d="M271 724Q325 724 365 707T431 662T471 603T484 541Q484 493 464 454T402 388Q456 363 490 316T524 209Q524 164 505 124T451 54T371 6T272 -12Q216 -12 172 6T97 52T49 113T32 176Q32 191 39 203T57 224T81 238T109 243Q126 243 137 235T157 213T174 185T196 156T227 135T274 126Q313 126 340 152T368 219Q368 254 356 271T324 295T283 305T242 312T211 331T198 374Q198 400 208 413T235 433T269 444T303 455T329 477T340 519Q340 548 321 567T268 586Q232 586 214 571T183 537T157 504T118 488Q87 488 70 511T53 562Q53 591 71 620T120 672T190 709T271 724Z"  />
<glyph unicode="4" horiz-adv-x="574" d="M86 157Q68 157 55 162T33 176T20 195T16 216Q16 233 20 242T30 260L254 666Q271 696 294 710T356 724Q378 724 398 717T435 695T461 655T471 596V289H488Q517 289 537 271T558 223Q558 193 538 175T488 157H471V72Q471 32 454 13T399 -6Q361 -6 344 13T327 72V157H86ZM327 568H325L190 289H327V568Z"  />
<glyph unicode="5" horiz-adv-x="574" d="M235 468Q253 472 272 475T310 478Q355 478 393 461T458 415T501 348T517 265Q517 202 500 151T450 64T367 8T252 -12Q225 -12 188 -4T116 22T57 64T32 122Q32 150 52 170T100 190Q115 190 131 180T167 158T208 136T255 126Q281 126 301 137T334 168T354 210T361 257Q361 302 337 330T265 358Q243 358 229 353T203 342T179 330T147 325Q132 325 121 330T103 342T92 357T88 372Q88 382 89 390T91 406L116 617Q120 646 126 664T141 693T163 708T194 712H435Q470 712 489 694T508 649Q508 623 500 608T480 586T457 576T438 574H250L235 468Z"  />
<glyph unicode="6" horiz-adv-x="574" d="M287 -12Q229 -12 183 8T104 62T54 141T36 236Q36 293 61 358T125 486T207 603T290 693Q296 699 304 705T322 717Q330 722 338 723T352 724Q362 724 374 718T398 701T416 678T423 651Q423 640 417 631T402 610Q387 592 368 571T330 529T294 488T264 450L266 448Q280 454 296 457T329 460Q374 460 412 442T478 392T522 321T538 236Q538 187 520 143T468 64T389 9T287 -12ZM287 340Q244 340 218 311T192 236Q192 194 217 163T287 132Q330 132 356 162T382 236Q382 256 376 274T358 307T329 331T287 340Z"  />
<glyph unicode="7" horiz-adv-x="538" d="M345 574H89Q69 574 55 580T32 595T19 617T15 643Q15 669 31 690T89 712H451Q470 712 483 705T506 686T519 663T523 640Q523 625 516 609T500 574L252 70Q241 49 233 35T216 11T196 -2T168 -6Q147 -6 132 1T106 18T90 41T85 65Q85 74 87 81T95 100L345 574Z"  />
<glyph unicode="8" horiz-adv-x="574" d="M287 326Q243 326 220 297T196 226Q196 207 201 189T218 157T247 135T287 126Q308 126 325 134T354 157T372 189T378 226Q378 274 354 300T287 326ZM287 -12Q235 -12 190 5T112 52T59 124T40 216Q40 276 69 319T147 389Q112 415 92 449T71 532Q71 576 88 611T134 672T203 710T287 724Q330 724 369 711T439 672T486 612T504 532Q504 490 484 451T427 389Q478 363 506 319T534 216Q534 164 514 122T461 50T382 4T287 -12ZM287 592Q252 592 234 570T215 516Q215 482 233 461T287 440Q322 440 341 461T360 516Q360 548 341 570T287 592Z"  />
<glyph unicode="9" horiz-adv-x="574" d="M287 724Q345 724 391 704T470 650T520 571T538 476Q538 419 513 354T449 226T367 109T284 19Q278 13 270 7T252 -5Q244 -10 236 -11T222 -12Q211 -12 199 -6T176 11T158 34T151 61Q151 72 157 81T172 102Q187 120 206 141T244 183T280 224T310 262L308 264Q294 258 278 255T245 252Q200 252 162 270T96 320T52 391T36 476Q36 525 54 569T106 648T185 703T287 724ZM287 372Q330 372 356 401T382 476Q382 518 357 549T287 580Q244 580 218 550T192 476Q192 456 198 438T216 405T245 381T287 372Z"  />
<glyph unicode=":" horiz-adv-x="268" d="M56 387Q56 419 79 442T134 465Q166 465 189 442T212 387Q212 355 189 332T134 309Q102 309 79 332T56 387ZM56 66Q56 98 79 121T134 144Q166 144 189 121T212 66Q212 34 189 11T134 -12Q102 -12 79 11T56 66Z"  />
<glyph unicode=";" horiz-adv-x="268" d="M143 156Q170 156 191 137T212 90Q212 79 208 70T199 50L115 -100Q106 -117 88 -125T58 -134Q31 -134 11 -115T-10 -68Q-10 -57 -7 -48T2 -28L85 122Q95 139 113 147T143 156ZM56 387Q56 419 79 442T134 465Q166 465 189 442T212 387Q212 355 189 332T134 309Q102 309 79 332T56 387Z"  />
<glyph unicode="&lt;" horiz-adv-x="600" d="M529 114Q550 105 557 92T565 63Q565 31 551 16T517 0Q510 0 500 2T467 14L72 196Q56 203 46 216T35 253Q35 276 45 289T72 310L467 491Q489 502 499 504T517 506Q536 506 550 491T565 443Q565 427 558 414T529 392L196 253L529 114Z"  />
<glyph unicode="=" horiz-adv-x="600" d="M505 425Q533 425 549 409T565 365Q565 338 549 322T505 305H95Q67 305 51 321T35 365Q35 392 51 408T95 425H505ZM505 201Q533 201 549 185T565 141Q565 114 549 98T505 81H95Q67 81 51 97T35 141Q35 168 51 184T95 201H505Z"  />
<glyph unicode="&gt;" horiz-adv-x="600" d="M404 253L71 392Q50 401 43 414T35 443Q35 475 49 490T83 506Q90 506 100 504T133 491L528 310Q544 303 554 290T565 253Q565 230 555 217T528 196L133 14Q111 4 101 2T83 0Q64 0 50 15T35 63Q35 79 42 92T71 114L404 253Z"  />
<glyph unicode="?" horiz-adv-x="481" d="M147 372Q147 385 154 393T172 407T198 417T228 425Q243 429 257 434T283 449T301 473T308 510Q308 526 301 540T283 564T256 580T225 586Q193 586 173 571T137 537T105 503T64 487Q37 487 20 506T3 559Q3 598 25 629T80 681T152 713T225 724Q273 724 316 710T393 668T445 600T464 510Q464 427 416 377T291 308V272Q291 242 271 223T219 203Q185 203 166 222T147 272V372ZM219 -12Q187 -12 164 11T141 66Q141 98 164 121T219 144Q251 144 274 121T297 66Q297 34 274 11T219 -12Z"  />
<glyph unicode="@" horiz-adv-x="800" d="M359 252Q381 252 399 261T431 285T451 319T459 360Q459 394 439 419T383 445Q363 445 346 436T316 411T296 376T289 338Q289 322 293 307T306 279T328 260T359 252ZM400 724Q470 724 536 700T654 633T737 531T768 403Q768 354 753 317T713 251T658 204T600 172T547 155T511 150Q473 150 458 164T442 199H440Q420 176 393 163T335 150Q303 150 276 165T229 204T198 260T187 324Q187 367 200 407T239 478T301 528T382 547Q419 547 449 533T499 487H501V499Q501 522 514 534T557 547Q576 547 589 540T603 519Q603 509 602 502T599 487L559 305Q557 299 556 290T555 272Q555 263 560 257T578 251Q589 251 606 259T639 286T666 333T678 403Q678 457 655 499T594 572T505 618T400 634Q342 634 292 612T204 553T144 465T122 356Q122 298 144 248T203 160T291 100T400 78Q454 78 507 88T608 125Q616 129 624 136T642 151T659 163T675 168Q687 168 699 161T712 131Q712 117 705 105T685 77Q656 50 622 33T552 6T477 -8T400 -12Q324 -12 257 17T140 96T61 213T32 356Q32 432 61 499T140 616T257 695T400 724Z"  />
<glyph unicode="A" horiz-adv-x="630" d="M210 641Q223 676 251 700T317 724Q357 724 384 701T424 641L620 97Q625 85 626 75T628 60Q628 31 608 13T559 -6Q527 -6 511 8T486 46L456 140H178L148 47Q140 24 124 9T76 -6Q46 -6 24 14T2 64Q2 76 4 84T9 97L210 641ZM221 278H411L318 568H316L221 278Z"  />
<glyph unicode="B" horiz-adv-x="574" d="M45 637Q45 673 67 692T124 712H316Q355 712 389 700T448 664T489 609T504 536Q504 483 482 448T411 389V387Q443 382 470 368T518 331T551 279T563 217Q563 164 546 124T499 56T426 14T331 0H125Q90 0 68 20T45 76V637ZM195 430H273Q310 430 332 450T354 509Q354 544 330 562T273 580H195V430ZM195 132H313Q354 132 380 154T407 219Q407 254 381 276T301 298H195V132Z"  />
<glyph unicode="C" horiz-adv-x="611" d="M17 356Q17 434 42 501T112 617T221 695T361 724Q388 724 425 719T495 701T552 667T576 612Q576 585 559 565T514 545Q499 545 485 550T454 562T415 574T361 580Q314 580 279 562T221 512T185 440T173 353Q173 308 185 268T221 198T280 150T361 132Q392 132 415 138T457 153T490 167T520 174Q537 174 549 167T570 149T582 127T586 106Q586 70 561 47T501 11T428 -7T361 -12Q285 -12 222 16T113 94T42 211T17 356Z"  />
<glyph unicode="D" horiz-adv-x="667" d="M45 635Q45 670 66 691T122 712H288Q372 712 437 686T548 612T616 497T640 346Q640 267 616 203T546 94T438 25T298 0H124Q112 0 98 3T72 16T53 39T45 75V635ZM195 138H296Q344 138 379 154T438 200T473 269T484 353Q484 401 473 441T437 511T376 557T286 574H195V138Z"  />
<glyph unicode="E" horiz-adv-x="463" d="M45 625Q45 663 64 687T123 712H371Q407 712 424 691T442 643Q442 617 424 596T371 574H195V428H359Q396 428 414 407T432 359Q432 333 414 312T359 290H195V138H380Q416 138 433 117T451 69Q451 43 433 22T380 0H122Q89 0 67 20T45 75V625Z"  />
<glyph unicode="F" horiz-adv-x="444" d="M45 634Q45 665 65 688T123 712H379Q412 712 429 691T446 643Q446 617 430 596T379 574H195V428H350Q386 428 404 407T422 360Q422 334 404 312T350 290H195V72Q195 34 174 14T120 -6Q88 -6 67 14T45 72V634Z"  />
<glyph unicode="G" horiz-adv-x="704" d="M599 422Q647 422 667 398T687 326Q687 254 664 192T599 85T497 14T361 -12Q285 -12 222 16T113 94T42 211T17 356Q17 434 42 501T112 617T221 695T361 724Q418 724 468 712T555 680T614 635T636 583Q636 551 618 532T574 513Q548 513 530 524T491 549T440 574T361 586Q314 586 279 567T221 517T185 443T173 356Q173 310 184 269T219 196T278 145T361 126Q391 126 421 134T475 162T515 211T531 284H429Q398 284 379 303T359 354Q359 386 379 404T429 422H599Z"  />
<glyph unicode="H" horiz-adv-x="704" d="M45 640Q45 678 66 698T120 718Q152 718 173 698T195 640V428H509V640Q509 678 530 698T584 718Q616 718 637 698T659 640V72Q659 34 638 14T584 -6Q552 -6 531 14T509 72V290H195V72Q195 34 174 14T120 -6Q88 -6 67 14T45 72V640Z"  />
<glyph unicode="I" horiz-adv-x="240" d="M45 640Q45 678 66 698T120 718Q152 718 173 698T195 640V72Q195 34 174 14T120 -6Q88 -6 67 14T45 72V640Z"  />
<glyph unicode="J" horiz-adv-x="407" d="M368 200Q368 137 350 96T304 31T240 -2T170 -12Q144 -12 112 -7T52 12T5 47T-14 102Q-14 112 -10 123T1 143T19 157T42 163Q57 163 71 157T100 145T130 132T162 126Q183 126 194 134T211 156T217 183T218 210V640Q218 678 239 698T293 718Q325 718 346 698T368 640V200Z"  />
<glyph unicode="K" horiz-adv-x="611" d="M45 644Q45 675 65 696T120 718Q152 718 173 699T195 644V428L441 690Q449 699 463 708T499 718Q528 718 550 698T573 646Q573 626 561 609T524 566L335 380L566 139Q584 121 596 104T608 63Q608 28 585 11T530 -6Q508 -6 492 6T454 41L195 321V66Q195 37 175 16T120 -6Q88 -6 67 13T45 66V644Z"  />
<glyph unicode="L" horiz-adv-x="426" d="M45 640Q45 678 66 698T120 718Q152 718 173 698T195 640V138H373Q392 138 406 132T428 115T441 92T445 66Q443 41 425 21T373 0H123Q86 0 66 22T45 82V640Z"  />
<glyph unicode="M" horiz-adv-x="870" d="M118 641Q120 654 128 668T149 693T179 711T216 718Q254 718 281 696T316 646L434 250H436L554 646Q562 673 589 695T654 718Q674 718 691 711T720 693T741 668T752 641L845 83Q846 78 846 74T846 66Q846 33 825 14T774 -6Q736 -6 719 11T696 64L637 471H635L515 52Q512 43 507 33T493 14T469 0T435 -6Q415 -6 401 -1T378 14T363 33T355 52L235 471H233L174 64Q169 29 152 12T96 -6Q66 -6 45 13T24 66Q24 70 24 74T25 83L118 641Z"  />
<glyph unicode="N" horiz-adv-x="685" d="M39 640Q39 678 60 698T114 718Q128 718 147 709T177 685L494 262H496V640Q496 678 517 698T571 718Q603 718 624 698T646 640V72Q646 34 625 14T571 -6Q557 -6 538 3T508 27L191 445H189V72Q189 34 168 14T114 -6Q82 -6 61 14T39 72V640Z"  />
<glyph unicode="O" horiz-adv-x="722" d="M361 126Q409 126 444 145T502 195T537 268T549 356Q549 401 537 443T502 516T443 567T361 586Q314 586 279 567T221 517T185 443T173 356Q173 310 184 269T219 196T278 145T361 126ZM361 -12Q285 -12 222 16T113 94T42 211T17 356Q17 434 42 501T112 617T221 695T361 724Q436 724 499 695T608 616T679 499T705 356Q705 278 680 211T610 95T502 17T361 -12Z"  />
<glyph unicode="P" horiz-adv-x="556" d="M45 634Q45 669 65 690T123 712H300Q355 712 402 695T483 647T536 571T556 473Q556 418 536 374T482 300T403 253T306 236H195V72Q195 34 174 14T120 -6Q88 -6 67 14T45 72V634ZM195 368H297Q345 368 372 398T400 474Q400 519 373 549T297 580H195V368Z"  />
<glyph unicode="Q" horiz-adv-x="722" d="M537 32Q500 11 456 0T361 -12Q285 -12 222 16T113 94T42 211T17 356Q17 434 42 501T112 617T221 695T361 724Q436 724 499 695T608 616T679 499T705 356Q705 290 688 232T638 125L695 76Q709 63 719 50T730 15Q730 2 724 -9T708 -29T686 -43T661 -48Q644 -48 629 -41T594 -16L537 32ZM525 228Q538 257 543 289T549 356Q549 401 537 442T502 516T443 567T361 586Q314 586 279 567T221 517T185 443T173 356Q173 310 184 269T219 196T278 145T361 126Q378 126 394 128T425 133L389 168Q381 176 376 186T370 208Q370 237 388 258T438 280Q449 280 458 277T476 267L525 228Z"  />
<glyph unicode="R" horiz-adv-x="556" d="M45 634Q45 670 64 691T122 712H298Q356 712 402 699T480 658T529 588T547 486Q547 445 533 413T493 357T434 318T362 297L532 115Q552 94 552 71Q552 56 547 43T531 18T507 1T477 -6Q463 -6 447 0T419 20L197 289H195V72Q195 34 174 14T120 -6Q88 -6 67 14T45 72V634ZM195 397H298Q340 397 365 420T391 486Q391 529 366 551T298 574H195V397Z"  />
<glyph unicode="S" horiz-adv-x="537" d="M270 724Q291 724 324 720T388 704T443 673T466 624Q466 595 448 573T399 550Q384 550 370 554T340 565T306 575T266 580Q234 580 209 564T184 515Q184 489 208 475T270 450T351 426T431 388T493 324T518 220Q518 166 498 123T442 50T361 4T262 -12Q233 -12 192 -8T112 9T46 43T19 100Q19 129 37 150T86 171Q104 171 123 165T163 152T207 138T254 132Q304 132 330 156T356 218Q356 247 332 263T270 291T189 315T109 348T47 404T22 497Q22 549 42 591T96 663T175 708T270 724Z"  />
<glyph unicode="T" horiz-adv-x="480" d="M165 574H56Q20 574 4 595T-12 643Q-12 669 6 690T56 712H424Q456 712 474 691T492 643Q492 617 476 596T424 574H315V72Q315 34 294 14T240 -6Q208 -6 187 14T165 72V574Z"  />
<glyph unicode="U" horiz-adv-x="685" d="M39 640Q39 678 60 698T114 718Q146 718 167 698T189 640V291Q189 256 199 226T230 174T278 139T343 126Q377 126 405 139T453 175T485 228T496 291V640Q496 678 517 698T571 718Q603 718 624 698T646 640V283Q646 220 622 166T557 73T460 11T343 -12Q280 -12 225 10T129 71T63 165T39 283V640Z"  />
<glyph unicode="V" horiz-adv-x="592" d="M3 609Q-4 627 -4 646Q-4 678 19 698T73 718Q99 718 115 704T141 669L296 253L451 669Q461 689 477 703T519 718Q549 718 572 698T596 646Q596 627 589 609L370 52Q360 28 345 11T296 -6Q263 -6 248 11T222 52L3 609Z"  />
<glyph unicode="W" horiz-adv-x="908" d="M12 618Q10 628 9 634T8 652Q8 676 27 697T79 718Q115 718 133 699T159 646L244 221H246L376 659Q384 686 405 702T454 718Q482 718 503 702T532 659L662 221H664L749 646Q756 679 774 698T829 718Q862 718 881 697T900 652Q900 641 899 635T896 618L769 72Q761 40 737 17T670 -6Q633 -6 607 15T571 67L455 453H453L337 67Q328 36 302 15T238 -6Q196 -6 172 17T139 72L12 618Z"  />
<glyph unicode="X" horiz-adv-x="612" d="M219 381L57 601Q41 622 41 645Q41 678 63 698T117 718Q136 718 153 707T182 681L306 505L430 681Q441 696 458 707T495 718Q527 718 549 698T571 645Q571 622 555 601L393 381L591 115Q597 107 602 94T608 64Q608 32 587 13T532 -6Q494 -6 470 27L306 255L142 27Q118 -6 80 -6Q47 -6 26 13T4 64Q4 80 9 93T21 115L219 381Z"  />
<glyph unicode="Y" horiz-adv-x="536" d="M193 334L4 600Q-10 620 -10 645Q-10 675 10 696T62 718Q103 718 124 688L268 479L412 688Q433 718 474 718Q506 718 526 697T546 645Q546 620 532 600L343 334V67Q343 39 326 17T268 -6Q228 -6 211 16T193 67V334Z"  />
<glyph unicode="Z" horiz-adv-x="593" d="M499 132Q531 132 551 115T571 66Q571 37 549 19T499 0H106Q66 0 44 20T22 72Q22 102 42 130L364 580H101Q71 580 51 596T31 644Q31 673 51 692T101 712H467Q511 712 531 689T551 640Q551 623 545 606T529 576L209 132H499Z"  />
<glyph unicode="[" horiz-adv-x="278" d="M44 652Q44 685 64 704T117 724H217Q239 724 254 711T270 667Q270 636 255 623T217 610H170V-40H217Q239 -40 254 -53T270 -97Q270 -128 255 -141T217 -154H117Q84 -154 64 -135T44 -82V652Z"  />
<glyph unicode="\" horiz-adv-x="407" d="M390 71Q399 50 399 43Q399 20 382 4T339 -12Q315 -12 303 -2T284 25L16 641Q8 663 8 669Q8 692 25 708T67 724Q91 724 103 714T123 687L390 71Z"  />
<glyph unicode="]" horiz-adv-x="278" d="M234 -82Q234 -115 214 -134T161 -154H61Q39 -154 24 -141T8 -97Q8 -66 23 -53T61 -40H108V610H61Q39 610 24 623T8 667Q8 698 23 711T61 724H161Q194 724 214 705T234 652V-82Z"  />
<glyph unicode="^" horiz-adv-x="600" d="M175 337Q166 324 154 320T124 315Q103 315 88 325T73 355Q73 371 86 395L247 688Q255 705 270 711T300 718Q315 718 330 712T353 688L514 395Q527 371 527 355Q527 335 512 325T476 315Q458 315 446 319T425 337L300 568L175 337Z"  />
<glyph unicode="_" horiz-adv-x="500" d="M0 -125Q-12 -125 -20 -119T-29 -100Q-29 -88 -21 -82T0 -75H500Q512 -75 520 -81T529 -100Q529 -112 521 -118T500 -125H0Z"  />
<glyph unicode="`" horiz-adv-x="222" d="M29 652Q-12 669 -12 711Q-12 721 -8 732T3 752T21 767T42 773Q46 773 52 772T75 764T122 746T206 711Q219 704 226 693T234 671Q234 658 230 645T219 622T202 605T181 598Q169 598 156 603Q149 605 141 608L29 652Z"  />
<glyph unicode="a" horiz-adv-x="574" d="M533 88Q533 74 532 58T525 27T504 4T464 -6Q432 -6 418 10T395 55Q339 -12 258 -12Q207 -12 164 8T88 65T38 153T20 265Q20 324 38 375T89 463T165 522T258 544Q298 544 334 528T395 478Q398 504 418 521T464 538Q490 538 504 529T524 505T532 475T533 444V88ZM164 265Q164 239 171 213T192 167T227 133T278 120Q306 120 327 133T361 166T382 213T389 265Q389 291 383 317T362 364T327 398T278 412Q248 412 227 399T191 364T171 317T164 265Z"  />
<glyph unicode="b" horiz-adv-x="574" d="M41 690Q41 726 61 748T113 770Q145 770 165 748T185 690V494Q214 519 249 531T322 544Q380 544 423 519T496 454T539 363T554 259Q554 208 538 160T490 73T415 11T317 -12Q280 -12 243 4T185 54Q178 25 161 10T113 -6Q81 -6 61 16T41 74V690ZM185 270Q185 244 191 217T212 169T247 134T298 120Q326 120 347 133T382 167T403 214T410 265Q410 290 403 316T382 364T347 398T298 412Q269 412 248 400T213 367T192 322T185 270Z"  />
<glyph unicode="c" horiz-adv-x="463" d="M454 453Q454 442 450 430T439 407T422 391T399 384Q385 384 372 388T346 398T317 407T285 412Q254 412 232 400T194 367T172 320T164 265Q164 238 172 212T195 166T233 133T285 120Q298 120 314 124T346 135T373 145T392 150Q418 150 436 132T454 87Q454 59 434 40T386 10T327 -7T278 -12Q220 -12 173 10T91 70T39 158T20 265Q20 320 39 370T92 459T173 521T278 544Q299 544 329 540T387 525T434 497T454 453Z"  />
<glyph unicode="d" horiz-adv-x="574" d="M533 74Q533 38 513 16T461 -6Q431 -6 414 9T389 54Q369 21 332 5T257 -12Q203 -12 159 11T84 72T37 159T20 259Q20 311 34 362T78 454T150 519T252 544Q290 544 325 532T389 494V690Q389 726 409 748T461 770Q493 770 513 748T533 690V74ZM389 270Q389 296 382 321T361 367T326 399T276 412Q248 412 227 399T192 364T171 317T164 265Q164 240 171 214T192 167T227 133T276 120Q306 120 327 133T362 168T382 217T389 270Z"  />
<glyph unicode="e" horiz-adv-x="537" d="M157 218Q165 164 203 139T293 114Q321 114 344 123T388 143T425 163T456 172Q479 172 497 153T515 110Q515 87 494 65T438 26T362 -1T280 -12Q219 -12 170 9T85 67T30 154T10 265Q10 320 29 370T82 459T163 521T268 544Q326 544 374 520T456 458T508 374T527 282Q527 250 512 234T464 218H157ZM383 314Q377 362 348 393T268 424Q220 424 190 392T154 314H383Z"  />
<glyph unicode="f" horiz-adv-x="296" d="M74 406H42Q13 406 -4 423T-21 469Q-21 496 -3 514T42 532H74V606Q74 686 116 728T225 770Q244 770 262 767T294 757T316 737T325 705Q325 644 266 644Q257 644 249 643T233 637T222 622T218 591V532H263Q295 532 315 518T336 469Q336 435 316 421T263 406H218V74Q218 38 198 16T146 -6Q114 -6 94 16T74 74V406Z"  />
<glyph unicode="g" horiz-adv-x="574" d="M533 42Q533 -23 513 -71T456 -152T368 -201T256 -218Q234 -218 196 -212T120 -194T56 -161T29 -110Q29 -100 34 -89T47 -69T66 -53T87 -47Q104 -47 122 -54T163 -69T210 -85T267 -92Q320 -92 354 -63T389 22V56H387Q341 -12 242 -12Q185 -12 144 11T75 72T34 160T20 264Q20 318 36 368T84 458T159 520T257 544Q294 544 331 528T389 478Q396 507 413 522T461 538Q493 538 513 516T533 458V42ZM389 262Q389 288 383 315T362 363T327 398T276 412Q248 412 227 399T192 365T171 318T164 267Q164 238 171 212T192 165T227 132T276 120Q305 120 326 132T361 165T382 210T389 262Z"  />
<glyph unicode="h" horiz-adv-x="556" d="M41 690Q41 726 61 748T113 770Q145 770 165 748T185 690V494H187Q210 522 247 533T318 544Q360 544 396 531T459 493T500 432T515 350V74Q515 38 495 16T443 -6Q411 -6 391 16T371 74V325Q371 376 344 400T277 424Q232 424 209 396T185 325V74Q185 38 165 16T113 -6Q81 -6 61 16T41 74V690Z"  />
<glyph unicode="i" horiz-adv-x="222" d="M39 458Q39 494 59 516T111 538Q143 538 163 516T183 458V74Q183 38 163 16T111 -6Q79 -6 59 16T39 74V458ZM111 754Q127 754 141 748T167 730T185 705T192 675Q192 641 169 617T111 592Q95 592 81 599T55 617T37 643T30 675Q30 690 36 704T54 730T80 747T111 754Z"  />
<glyph unicode="j" horiz-adv-x="222" d="M39 458Q39 494 59 516T111 538Q143 538 163 516T183 458V-138Q183 -174 163 -196T111 -218Q79 -218 59 -196T39 -138V458ZM111 754Q127 754 141 748T167 730T185 705T192 675Q192 641 169 617T111 592Q95 592 81 599T55 617T37 643T30 675Q30 690 36 704T54 730T80 747T111 754Z"  />
<glyph unicode="k" horiz-adv-x="500" d="M41 690Q41 726 61 748T113 770Q145 770 165 748T185 690V354L343 507Q360 524 377 531T408 538Q435 538 452 518T469 473Q469 457 463 444T441 416L313 302L482 104Q492 93 496 81T500 56Q500 27 481 8T432 -12Q412 -12 396 -1T363 32L187 249H185V74Q185 38 165 16T113 -6Q81 -6 61 16T41 74V690Z"  />
<glyph unicode="l" horiz-adv-x="222" d="M39 690Q39 726 59 748T111 770Q143 770 163 748T183 690V74Q183 38 163 16T111 -6Q79 -6 59 16T39 74V690Z"  />
<glyph unicode="m" horiz-adv-x="852" d="M41 458Q41 494 61 516T113 538Q141 538 158 524T179 484Q205 513 239 528T313 544Q404 544 462 471Q492 506 534 525T614 544Q702 544 756 495T811 350V74Q811 38 791 16T739 -6Q707 -6 687 16T667 74V325Q667 369 645 396T583 424Q543 424 521 397T498 325V74Q498 38 478 16T426 -6Q394 -6 374 16T354 74V325Q354 369 332 396T270 424Q225 424 205 397T185 325V74Q185 38 165 16T113 -6Q81 -6 61 16T41 74V458Z"  />
<glyph unicode="n" horiz-adv-x="556" d="M41 458Q41 494 61 516T113 538Q141 538 158 524T179 485Q200 514 233 529T318 544Q360 544 396 531T459 493T500 432T515 350V74Q515 38 495 16T443 -6Q411 -6 391 16T371 74V325Q371 376 344 400T277 424Q232 424 209 396T185 325V74Q185 38 165 16T113 -6Q81 -6 61 16T41 74V458Z"  />
<glyph unicode="o" horiz-adv-x="556" d="M278 544Q335 544 382 521T464 460T517 371T536 265Q536 209 518 159T465 70T384 10T278 -12Q220 -12 173 10T91 70T39 158T20 265Q20 320 39 370T92 459T173 521T278 544ZM278 412Q248 412 227 399T191 364T171 317T164 265Q164 239 171 213T192 167T227 133T278 120Q307 120 328 133T364 166T385 213T392 265Q392 291 386 317T365 364T330 398T278 412Z"  />
<glyph unicode="p" horiz-adv-x="574" d="M41 458Q41 494 61 516T113 538Q143 538 160 523T185 478Q205 511 243 527T322 544Q380 544 423 519T496 454T539 363T554 259Q554 208 538 160T490 73T415 11T317 -12Q283 -12 249 0T185 38V-138Q185 -174 165 -196T113 -218Q81 -218 61 -196T41 -138V458ZM185 270Q185 244 191 217T212 169T247 134T298 120Q326 120 347 133T382 167T403 214T410 265Q410 290 403 316T382 364T347 398T298 412Q269 412 248 400T213 367T192 322T185 270Z"  />
<glyph unicode="q" horiz-adv-x="574" d="M533 -138Q533 -174 513 -196T461 -218Q429 -218 409 -196T389 -138V38Q360 13 326 1T257 -12Q203 -12 159 11T84 72T37 159T20 259Q20 311 34 362T78 454T150 519T252 544Q293 544 331 528T389 478Q396 507 413 522T461 538Q493 538 513 516T533 458V-138ZM389 270Q389 296 382 321T361 367T326 399T276 412Q248 412 227 399T192 364T171 317T164 265Q164 240 171 214T192 167T227 133T276 120Q306 120 327 133T362 168T382 217T389 270Z"  />
<glyph unicode="r" horiz-adv-x="333" d="M39 466Q39 502 62 520T113 538Q142 538 162 526T183 478H185Q205 508 228 523T286 538Q312 538 334 519T356 461Q356 443 349 433T329 416T302 404T270 391Q254 383 239 376T211 357T191 331T183 295V74Q183 38 163 16T111 -6Q79 -6 59 16T39 74V466Z"  />
<glyph unicode="s" horiz-adv-x="426" d="M403 440Q403 415 387 396T344 376Q334 376 319 382T287 397T252 411T215 418Q195 418 181 409T166 378Q166 361 184 350T231 327T291 304T351 272T397 226T416 157Q416 121 402 90T360 37T295 1T211 -12Q181 -12 146 -4T80 19T30 54T10 99Q10 107 14 118T26 139T45 156T72 163Q93 163 109 156T142 139T176 122T221 114Q254 114 266 124T278 155Q278 171 260 182T213 205T153 228T93 260T47 307T28 376Q28 413 42 444T83 497T144 532T223 544Q250 544 281 538T340 519T385 487T403 440Z"  />
<glyph unicode="t" horiz-adv-x="296" d="M76 406H44Q15 406 -2 423T-19 469Q-19 496 -1 514T44 532H76V618Q76 654 96 676T148 698Q180 698 200 676T220 618V532H261Q289 532 309 518T330 469Q330 435 310 421T261 406H220V74Q220 38 200 16T148 -6Q116 -6 96 16T76 74V406Z"  />
<glyph unicode="u" horiz-adv-x="556" d="M41 458Q41 494 61 516T113 538Q145 538 165 516T185 458V201Q185 156 213 132T278 108Q314 108 342 132T371 201V458Q371 494 391 516T443 538Q475 538 495 516T515 458V198Q515 101 454 45T278 -12Q163 -12 102 44T41 198V458Z"  />
<glyph unicode="v" horiz-adv-x="462" d="M8 426Q3 440 1 449T-1 468Q-1 503 22 520T74 538Q104 538 118 521T138 487L230 203H232L324 487Q329 504 343 521T388 538Q417 538 440 521T463 468Q463 458 461 449T454 426L309 54Q298 26 283 10T231 -6Q194 -6 179 10T153 54L8 426Z"  />
<glyph unicode="w" horiz-adv-x="778" d="M22 412Q14 434 11 449T7 480Q7 504 27 521T79 538Q105 538 123 523T147 481L230 206H232L316 475Q324 504 340 521T389 538Q421 538 437 521T462 475L546 206H548L631 481Q637 507 655 522T699 538Q731 538 751 520T771 468Q771 456 767 444T757 414L634 67Q623 35 603 15T547 -6Q514 -6 494 11T464 61L390 293H388L314 61Q304 29 284 12T231 -6Q196 -6 176 14T144 67L22 412Z"  />
<glyph unicode="x" horiz-adv-x="500" d="M166 279L44 416Q35 427 29 440T22 468Q22 497 45 517T96 538Q113 538 125 531T149 510L250 384L351 510Q362 524 374 531T404 538Q432 538 455 518T478 468Q478 454 472 441T456 416L334 279L480 113Q488 104 494 90T500 64Q500 32 481 13T429 -6Q405 -6 393 3T369 26L250 172L131 26Q120 12 108 3T71 -6Q39 -6 20 13T0 64Q0 76 6 90T20 113L166 279Z"  />
<glyph unicode="y" horiz-adv-x="481" d="M5 439Q2 447 0 456T-2 476Q-2 489 4 500T21 520T43 533T66 538Q92 538 110 525T138 487L237 216L343 487Q352 511 370 524T415 538Q426 538 438 534T460 521T476 501T483 476Q483 454 476 439L235 -161Q226 -184 210 -201T167 -218Q130 -218 111 -199T92 -156Q92 -145 94 -135T101 -114L164 42L5 439Z"  />
<glyph unicode="z" horiz-adv-x="481" d="M250 406H83Q56 406 37 422T18 469Q18 499 37 515T83 532H410Q415 532 423 531T438 524T451 511T457 487Q457 473 454 464T442 444L215 126H405Q432 126 451 110T470 63Q470 33 451 17T405 0H70Q46 0 29 12T11 49Q11 61 15 71T24 88L250 406Z"  />
<glyph unicode="{" horiz-adv-x="333" d="M86 171Q86 193 82 206T72 226T56 235T38 237Q13 237 2 252T-10 285Q-10 303 1 318T38 333Q47 333 56 335T71 343T82 363T86 399V593Q86 662 119 693T219 724H281Q301 724 313 713T326 679Q326 656 314 645T281 634H256Q235 634 224 621T212 576V387Q212 353 200 334T171 304T136 290T104 286V284Q117 283 135 280T171 267T200 237T212 183V-6Q212 -37 223 -50T256 -64H281Q301 -64 313 -75T326 -109Q326 -132 314 -143T281 -154H219Q153 -154 120 -123T86 -23V171Z"  />
<glyph unicode="|" horiz-adv-x="222" d="M51 750Q51 777 67 793T111 810Q139 810 155 794T171 750V-250Q171 -277 155 -293T111 -310Q83 -310 67 -294T51 -250V750Z"  />
<glyph unicode="}" horiz-adv-x="333" d="M247 399Q247 376 251 363T261 344T277 335T295 333Q320 333 331 318T343 285Q343 267 332 252T295 237Q286 237 277 235T262 227T251 207T247 171V-23Q247 -92 214 -123T114 -154H52Q32 -154 20 -143T7 -109Q7 -86 19 -75T52 -64H77Q98 -64 109 -51T121 -6V183Q121 217 133 236T162 266T197 280T229 284V286Q216 287 198 290T162 303T133 333T121 387V576Q121 607 110 620T77 634H52Q32 634 20 645T7 679Q7 702 19 713T52 724H114Q180 724 213 693T247 593V399Z"  />
<glyph unicode="~" horiz-adv-x="600" d="M405 279Q426 279 440 288T465 309T488 330T516 340Q540 340 549 325T559 291Q559 268 549 245T520 202T472 171T407 159Q379 159 350 169T292 193T239 216T195 227Q174 227 160 218T135 197T112 176T84 166Q60 166 51 181T41 215Q41 238 51 261T80 304T128 335T193 347Q221 347 250 337T308 313T361 290T405 279Z"  />
<glyph unicode="&#xA0;" horiz-adv-x="268" />
<glyph unicode="&#xA1;" horiz-adv-x="334" d="M95 261Q95 293 115 311T167 329Q197 329 218 311T239 261V-124Q239 -155 218 -173T167 -192Q136 -192 116 -174T95 -124V261ZM167 544Q199 544 222 521T245 466Q245 434 222 411T167 388Q135 388 112 411T89 466Q89 498 112 521T167 544Z"  />
<glyph unicode="&#xA2;" horiz-adv-x="463" d="M238 401Q200 385 182 347T164 265Q164 223 183 186T238 132V401ZM292 120Q305 121 320 126T349 136T374 145T392 150Q418 150 436 132T454 87Q454 61 437 43T395 12T342 -5T292 -12V-35Q292 -52 289 -67T265 -82Q245 -82 242 -67T238 -35V-8Q186 -1 146 23T77 84T35 168T20 269Q20 320 35 366T79 448T148 508T238 540V568Q238 588 241 601T265 615Q285 615 288 602T292 568V544Q313 544 340 539T393 523T436 495T454 453Q454 441 450 429T439 406T422 389T399 382Q386 382 374 386T349 395T322 405T292 411V120Z"  />
<glyph unicode="&#xA3;" horiz-adv-x="611" d="M425 424Q457 424 477 406T497 355Q497 323 477 305T425 286H296Q296 245 283 208T245 138H523Q555 138 575 120T595 69Q595 37 575 19T523 0H131Q94 0 74 21T53 78Q53 93 66 110T96 150T126 206T140 286H88Q56 286 36 304T16 355Q16 387 36 405T88 424H109Q104 433 100 447T91 476T85 505T83 530Q83 575 103 610T157 671T238 710T335 724Q387 724 433 711T514 675T568 620T588 551Q588 516 566 496T510 475Q484 475 470 491T439 527T402 563T341 580Q322 580 305 575T275 560T253 536T245 503Q245 472 258 450L273 424H425Z"  />
<glyph unicode="&#xA4;" horiz-adv-x="600" d="M300 109Q258 109 220 121T158 155L101 96Q90 84 72 84Q64 84 55 87T38 100Q30 111 28 119T26 136Q26 144 31 150T40 159L98 217Q76 242 64 278T52 356Q52 398 63 436T98 497L40 555Q37 558 33 564T26 578Q26 586 27 594T38 614Q45 623 54 626T72 630Q90 630 101 618L158 561Q182 581 221 593T300 605Q340 605 379 593T442 561L499 618Q509 630 528 630Q536 630 545 627T562 614Q570 603 572 595T574 578Q574 570 569 564T560 555L502 497Q525 474 536 436T548 356Q548 314 536 278T502 217L560 159Q563 156 568 150T574 136Q574 128 572 120T562 100Q555 91 546 88T528 84Q509 84 499 96L442 155Q418 133 380 121T300 109ZM300 491Q272 491 249 481T208 452T182 410T172 356Q172 327 181 303T208 261T249 233T300 223Q327 223 350 233T391 261T418 303T428 356Q428 385 419 409T392 452T352 480T300 491Z"  />
<glyph unicode="&#xA5;" horiz-adv-x="574" d="M212 188H70Q51 188 37 199T22 230Q22 249 36 260T70 272H212V340H70Q51 340 37 351T22 382Q22 401 36 412T70 424H151L24 600Q10 620 10 645Q10 675 30 696T82 718Q99 718 116 710T144 688L287 479L430 688Q440 702 457 710T492 718Q524 718 544 697T564 645Q564 620 550 600L423 424H504Q523 424 537 413T552 382Q552 363 538 352T504 340H362V272H504Q523 272 537 261T552 230Q552 211 538 200T504 188H362V67Q362 39 345 17T287 -6Q246 -6 229 16T212 67V188Z"  />
<glyph unicode="&#xA6;" horiz-adv-x="222" d="M51 615Q51 642 67 658T111 675Q139 675 155 659T171 615V385Q171 358 155 342T111 325Q83 325 67 341T51 385V615ZM51 115Q51 142 67 158T111 175Q139 175 155 159T171 115V-115Q171 -142 155 -158T111 -175Q83 -175 67 -159T51 -115V115Z"  />
<glyph unicode="&#xA7;" horiz-adv-x="574" d="M280 724Q312 724 354 717T435 692T500 647T527 576Q527 549 508 527T460 505Q437 505 420 518T386 548T348 578T298 592Q269 592 247 573T224 523Q224 502 238 489T276 466T329 445T390 419Q421 406 450 391T503 356T540 310T554 249Q554 217 547 192T527 145T493 107T448 71Q468 45 479 22T491 -34Q491 -78 474 -112T427 -169T359 -205T280 -218Q236 -218 192 -206T112 -172T54 -124T32 -67Q32 -34 56 -13T112 8Q132 8 146 -6T176 -39T212 -71T262 -86Q274 -86 287 -83T310 -72T328 -54T335 -29Q335 -8 322 7T286 34T236 56T178 78Q148 90 120 104T70 140T34 190T20 259Q20 317 42 356T109 431Q86 456 74 478T62 536Q62 581 79 616T127 675T196 711T280 724ZM347 156Q369 169 383 185T398 229Q398 256 376 274T324 304L214 347Q196 333 183 316T170 276Q170 251 183 236T221 209L347 156Z"  />
<glyph unicode="&#xA8;" horiz-adv-x="222" d="M149 675Q149 705 170 726T221 747Q251 747 272 726T293 675Q293 645 272 624T221 603Q191 603 170 624T149 675ZM-71 675Q-71 705 -50 726T1 747Q31 747 52 726T73 675Q73 645 52 624T1 603Q-29 603 -50 624T-71 675Z"  />
<glyph unicode="&#xA9;" horiz-adv-x="800" d="M536 389Q522 389 514 393T500 403T490 417T482 434Q478 440 473 446T459 459T437 468T403 472Q358 472 335 441T312 356Q312 302 335 271T403 240Q423 240 436 243T459 253T473 265T482 278Q486 287 490 295T499 309T513 319T536 323Q561 318 568 307T576 269Q576 252 564 232T529 193T474 163T403 150Q357 150 320 165T258 209T218 274T204 356Q204 400 218 437T257 503T320 546T403 562Q442 562 474 550T528 519T563 480T576 443Q576 416 569 405T536 389ZM32 356Q32 432 61 499T140 616T257 695T400 724Q476 724 543 695T660 616T739 499T768 356Q768 280 739 213T660 96T543 17T400 -12Q324 -12 257 17T140 96T61 213T32 356ZM122 356Q122 298 144 248T203 160T291 100T400 78Q458 78 508 100T596 159T656 247T678 356Q678 414 656 464T597 552T509 612T400 634Q342 634 292 612T204 553T144 465T122 356Z"  />
<glyph unicode="&#xAA;" horiz-adv-x="373" d="M346 435Q346 420 338 406T302 391Q277 391 268 402T257 430Q243 416 222 404T175 391Q139 391 110 403T59 438T25 490T13 557Q13 593 25 623T58 676T107 711T168 724Q194 724 217 715T257 685Q259 701 268 712T302 724Q330 724 338 707T346 670V435ZM181 469Q199 469 212 477T234 497T246 525T250 557Q250 573 246 588T234 617T213 638T181 646Q162 646 149 638T126 617T113 589T109 557Q109 541 113 526T126 498T148 477T181 469Z"  />
<glyph unicode="&#xAB;" horiz-adv-x="500" d="M362 478Q377 495 405 495Q432 495 447 479T463 440Q463 430 461 421T452 402L373 281L452 162Q459 152 461 144T463 128Q463 102 447 84T403 65Q388 65 375 71T353 90L250 249Q245 257 243 266T241 285Q241 299 249 314T265 341L362 478ZM158 478Q173 495 201 495Q228 495 243 479T259 440Q259 430 257 421T248 402L169 281L248 162Q255 152 257 144T259 128Q259 102 243 84T199 65Q184 65 171 71T149 90L46 249Q41 257 39 266T37 285Q37 299 45 314T61 341L158 478Z"  />
<glyph unicode="&#xAC;" horiz-adv-x="600" d="M505 425Q533 425 549 409T565 365V138Q565 111 549 95T505 78Q477 78 461 94T445 138V305H95Q67 305 51 321T35 365Q35 392 51 408T95 425H505Z"  />
<glyph unicode="&#xAD;" horiz-adv-x="389" d="M301 353Q329 351 343 334T358 289Q358 263 344 246T301 227H88Q60 229 46 246T31 289Q31 316 45 333T88 353H301Z"  />
<glyph unicode="&#xAE;" horiz-adv-x="800" d="M342 198Q342 177 333 164T297 150Q271 150 262 162T252 198V507Q252 524 260 536T298 549H411Q441 549 468 544T516 526T548 490T560 432Q560 378 534 351T460 322L531 206Q537 194 537 185Q537 150 490 150Q466 150 456 165T435 198L372 316H342V198ZM417 388Q442 388 456 396T470 432Q470 459 456 468T417 477H342V388H417ZM32 356Q32 432 61 499T140 616T257 695T400 724Q476 724 543 695T660 616T739 499T768 356Q768 280 739 213T660 96T543 17T400 -12Q324 -12 257 17T140 96T61 213T32 356ZM122 356Q122 298 144 248T203 160T291 100T400 78Q458 78 508 100T596 159T656 247T678 356Q678 414 656 464T597 552T509 612T400 634Q342 634 292 612T204 553T144 465T122 356Z"  />
<glyph unicode="&#xAF;" horiz-adv-x="222" d="M204 730Q232 730 250 715T269 670Q269 641 251 626T204 610H18Q-11 610 -29 625T-47 670Q-47 699 -29 714T18 730H204Z"  />
<glyph unicode="&#xB0;" horiz-adv-x="400" d="M117 563Q117 529 141 505T200 480Q234 480 258 504T283 563Q283 597 259 621T200 646Q166 646 142 622T117 563ZM39 563Q39 596 51 625T86 677T137 711T200 724Q233 724 262 712T314 677T348 626T361 563Q361 530 349 501T314 449T263 415T200 402Q167 402 138 414T86 449T52 500T39 563Z"  />
<glyph unicode="&#xB1;" horiz-adv-x="600" d="M240 458Q240 485 256 501T300 518Q328 518 344 502T360 458V394H505Q533 394 549 378T565 334Q565 307 549 291T505 274H360V210Q360 183 344 167T300 150Q272 150 256 166T240 210V274H95Q67 274 51 290T35 334Q35 361 51 377T95 394H240V458ZM505 120Q533 120 549 104T565 60Q565 33 549 17T505 0H95Q67 0 51 16T35 60Q35 87 51 103T95 120H505Z"  />
<glyph unicode="&#xB2;" horiz-adv-x="373" d="M300 393Q320 393 332 382T344 342Q344 313 332 302T300 291H76Q57 291 43 300T29 330Q29 339 34 347T44 360Q85 405 127 448T205 540Q214 552 221 565T228 595Q228 614 215 624T182 634Q153 634 143 620T127 589T113 558T80 544Q57 544 45 559T33 600Q33 616 43 637T72 678T120 711T186 724Q216 724 242 716T287 691T318 651T330 600Q330 567 314 537T275 479T231 430T198 393H300Z"  />
<glyph unicode="&#xB3;" horiz-adv-x="373" d="M182 724Q208 724 233 717T278 695T310 661T322 615Q322 586 308 563T267 523Q302 508 324 480T347 415Q347 381 333 357T295 316T242 293T182 285Q158 285 131 292T80 314T41 349T26 396Q26 413 42 424T76 436Q92 436 100 427T118 406T141 385T182 375Q208 375 226 388T245 421Q245 450 228 459T190 472Q179 474 169 476T152 482T139 493T134 514Q134 538 148 545T180 556Q197 560 211 568T226 601Q226 615 216 624T182 634Q162 634 151 626T130 609T110 591T82 583Q62 583 51 596T40 627Q40 649 54 666T91 697T137 717T182 724Z"  />
<glyph unicode="&#xB4;" horiz-adv-x="222" d="M81 609Q73 606 66 604Q60 602 53 601T41 599Q30 599 20 605T3 622T-8 646T-12 672Q-12 683 -5 694T16 712Q69 734 99 746T146 765T169 772T180 774Q191 774 201 768T218 753T230 733T234 712Q234 670 193 653L81 609Z"  />
<glyph unicode="&#xB5;" horiz-adv-x="556" d="M41 458Q41 494 61 516T113 538Q145 538 165 516T185 458V201Q185 156 213 132T278 108Q314 108 342 132T371 201V458Q371 494 391 516T443 538Q475 538 495 516T515 458V74Q515 38 495 16T443 -6Q411 -6 391 12T371 63H369Q353 22 327 5T277 -12Q254 -12 228 2T187 38H185V-138Q185 -174 165 -196T113 -218Q81 -218 61 -196T41 -138V458Z"  />
<glyph unicode="&#xB6;" horiz-adv-x="620" d="M238 363Q129 363 72 408T15 534Q15 588 34 622T86 677T164 704T261 712H515Q543 712 559 696T575 652V-152Q575 -179 559 -195T515 -212Q487 -212 471 -196T455 -152V622H358V-152Q358 -179 342 -195T298 -212Q270 -212 254 -196T238 -152V363Z"  />
<glyph unicode="&#xB7;" horiz-adv-x="268" d="M134 359Q150 359 164 353T189 336T206 311T212 281Q212 248 189 226T134 203Q102 203 79 226T56 281Q56 313 79 336T134 359Z"  />
<glyph unicode="&#xB8;" horiz-adv-x="222" d="M187 0L148 -51Q153 -51 159 -50T170 -48Q202 -48 223 -68T245 -124Q245 -148 235 -166T208 -195T172 -212T134 -218Q123 -218 108 -217T78 -210T54 -195T44 -168Q44 -157 50 -150T68 -142Q76 -142 89 -146T116 -152Q130 -153 139 -148T149 -124Q149 -104 139 -100T115 -96Q102 -94 92 -92T81 -73Q81 -66 89 -53T103 -33L127 0H187Z"  />
<glyph unicode="&#xB9;" horiz-adv-x="240" d="M88 616H54Q31 616 21 630T10 668Q10 691 22 704T54 718H147Q168 718 179 706T190 676V329Q190 311 177 298T139 285Q116 285 102 297T88 329V616Z"  />
<glyph unicode="&#xBA;" horiz-adv-x="361" d="M181 724Q218 724 249 711T302 674T336 620T348 557Q348 523 336 493T302 441T249 405T181 391Q143 391 112 404T59 440T25 493T13 557Q13 590 25 620T60 673T113 710T181 724ZM181 469Q199 469 212 477T234 497T247 526T252 557Q252 572 248 588T236 617T214 638T181 646Q162 646 149 638T126 617T113 588T109 557Q109 542 113 526T127 498T149 477T181 469Z"  />
<glyph unicode="&#xBB;" horiz-adv-x="500" d="M331 281L252 398Q245 408 243 416T241 432Q241 458 257 476T301 495Q316 495 329 489T351 470L454 311Q459 303 461 294T463 275Q463 261 455 246T439 219L342 82Q327 65 299 65Q272 65 257 81T241 120Q241 130 243 139T252 158L331 281ZM127 281L48 398Q41 408 39 416T37 432Q37 458 53 476T97 495Q112 495 125 489T147 470L250 311Q255 303 257 294T259 275Q259 261 251 246T235 219L138 82Q123 65 95 65Q68 65 53 81T37 120Q37 130 39 139T48 158L127 281Z"  />
<glyph unicode="&#xBC;" horiz-adv-x="861" d="M493 698Q503 717 512 723T539 730Q562 730 580 714T598 674Q598 668 597 662T590 644L254 15Q243 -1 235 -9T209 -18Q189 -18 171 -2T152 37Q152 48 155 58T162 74L493 698ZM114 616H80Q57 616 47 630T36 668Q36 691 48 704T80 718H173Q194 718 205 706T216 676V329Q216 311 203 298T165 285Q142 285 128 297T114 329V616ZM620 398Q631 416 646 424T691 433Q722 433 746 415T770 356V179H780Q799 179 812 168T825 132Q825 107 812 95T780 83H770V38Q770 -6 719 -6Q668 -6 668 38V83H505Q483 83 475 96T466 124Q466 132 469 140T475 154L620 398ZM668 332H666L582 179H668V332Z"  />
<glyph unicode="&#xBD;" horiz-adv-x="861" d="M493 698Q503 717 512 723T539 730Q562 730 580 714T598 674Q598 668 597 662T590 644L254 15Q243 -1 235 -9T209 -18Q189 -18 171 -2T152 37Q152 48 155 58T162 74L493 698ZM557 0Q538 0 524 9T510 40Q510 49 515 57T525 70Q566 115 608 158T686 250Q695 262 702 275T709 305Q709 324 696 333T663 343Q634 343 624 329T608 299T594 268T561 254Q538 254 526 269T514 310Q514 326 524 347T553 388T601 420T667 433Q697 433 723 425T768 400T799 361T811 310Q811 277 795 247T756 189T712 140T679 102H778Q796 102 810 87T825 49Q825 21 814 11T784 0H557ZM114 616H80Q57 616 47 630T36 668Q36 691 48 704T80 718H173Q194 718 205 706T216 676V329Q216 311 203 298T165 285Q142 285 128 297T114 329V616Z"  />
<glyph unicode="&#xBE;" horiz-adv-x="861" d="M569 698Q579 717 588 723T615 730Q638 730 656 714T674 674Q674 668 673 662T666 644L330 15Q319 -1 311 -9T285 -18Q265 -18 247 -2T228 37Q228 48 231 58T238 74L569 698ZM179 724Q205 724 230 717T275 695T307 661T319 615Q319 586 305 563T264 523Q299 508 321 480T344 415Q344 381 330 357T292 316T239 293T179 285Q155 285 128 292T77 314T38 349T23 396Q23 413 39 424T73 436Q89 436 97 427T115 406T138 385T179 375Q205 375 223 388T242 421Q242 450 225 459T187 472Q176 474 166 476T149 482T136 493T131 514Q131 538 145 545T177 556Q194 560 208 568T223 601Q223 615 213 624T179 634Q159 634 148 626T127 609T107 591T79 583Q59 583 48 596T37 627Q37 649 51 666T88 697T134 717T179 724ZM633 398Q644 416 659 424T704 433Q735 433 759 415T783 356V179H793Q812 179 825 168T838 132Q838 107 825 95T793 83H783V38Q783 -6 732 -6Q681 -6 681 38V83H518Q496 83 488 96T479 124Q479 132 482 140T488 154L633 398ZM681 332H679L595 179H681V332Z"  />
<glyph unicode="&#xBF;" horiz-adv-x="481" d="M334 160Q334 146 327 138T309 125T283 115T253 107Q238 103 224 98T198 83T180 59T173 22Q173 5 180 -8T198 -32T225 -48T256 -54Q287 -54 307 -39T344 -5T376 29T417 45Q444 45 461 26T478 -27Q478 -66 456 -97T401 -149T329 -181T256 -192Q208 -192 165 -178T88 -136T36 -68T17 22Q17 64 29 97T65 155T119 197T190 224V260Q190 290 210 309T262 329Q296 329 315 310T334 260V160ZM262 544Q294 544 317 521T340 466Q340 434 317 411T262 388Q230 388 207 411T184 466Q184 498 207 521T262 544Z"  />
<glyph unicode="&#xC0;" horiz-adv-x="630" d="M210 641Q223 676 251 700T317 724Q357 724 384 701T424 641L620 97Q625 85 626 75T628 60Q628 31 608 13T559 -6Q527 -6 511 8T486 46L456 140H178L148 47Q140 24 124 9T76 -6Q46 -6 24 14T2 64Q2 76 4 84T9 97L210 641ZM221 278H411L318 568H316L221 278ZM238 814Q197 831 197 873Q197 883 201 894T212 914T230 929T251 935Q255 935 261 934T284 926T331 908T415 873Q428 866 435 855T443 833Q443 820 439 807T428 784T411 767T390 760Q378 760 365 765Q358 767 350 770L238 814Z"  />
<glyph unicode="&#xC1;" horiz-adv-x="630" d="M210 641Q223 676 251 700T317 724Q357 724 384 701T424 641L620 97Q625 85 626 75T628 60Q628 31 608 13T559 -6Q527 -6 511 8T486 46L456 140H178L148 47Q140 24 124 9T76 -6Q46 -6 24 14T2 64Q2 76 4 84T9 97L210 641ZM221 278H411L318 568H316L221 278ZM285 770Q277 767 270 765Q264 763 257 762T245 760Q234 760 224 766T207 783T196 807T192 833Q192 844 199 855T220 873Q273 895 303 907T350 926T373 933T384 935Q395 935 405 929T422 914T434 894T438 873Q438 831 397 814L285 770Z"  />
<glyph unicode="&#xC2;" horiz-adv-x="630" d="M210 641Q223 676 251 700T317 724Q357 724 384 701T424 641L620 97Q625 85 626 75T628 60Q628 31 608 13T559 -6Q527 -6 511 8T486 46L456 140H178L148 47Q140 24 124 9T76 -6Q46 -6 24 14T2 64Q2 76 4 84T9 97L210 641ZM221 278H411L318 568H316L221 278ZM315 926L421 883Q443 874 455 860T467 822Q467 798 449 778T406 758Q397 758 383 764T354 776L315 793L276 776Q262 770 248 764T224 758Q200 758 182 778T163 822Q163 846 175 860T209 883L315 926Z"  />
<glyph unicode="&#xC3;" horiz-adv-x="630" d="M210 641Q223 676 251 700T317 724Q357 724 384 701T424 641L620 97Q625 85 626 75T628 60Q628 31 608 13T559 -6Q527 -6 511 8T486 46L456 140H178L148 47Q140 24 124 9T76 -6Q46 -6 24 14T2 64Q2 76 4 84T9 97L210 641ZM221 278H411L318 568H316L221 278ZM199 767Q180 767 165 783T149 819Q149 861 177 884T244 907Q261 907 277 903T308 895T335 886T356 882Q363 882 372 886T392 896T413 906T434 911Q457 911 469 894T481 855Q481 836 473 820T450 793T419 775T383 768Q371 768 355 772T323 780T293 789T270 793Q261 793 254 789T238 780T221 771T199 767Z"  />
<glyph unicode="&#xC4;" horiz-adv-x="630" d="M210 641Q223 676 251 700T317 724Q357 724 384 701T424 641L620 97Q625 85 626 75T628 60Q628 31 608 13T559 -6Q527 -6 511 8T486 46L456 140H178L148 47Q140 24 124 9T76 -6Q46 -6 24 14T2 64Q2 76 4 84T9 97L210 641ZM221 278H411L318 568H316L221 278ZM353 837Q353 867 374 888T425 909Q455 909 476 888T497 837Q497 807 476 786T425 765Q395 765 374 786T353 837ZM133 837Q133 867 154 888T205 909Q235 909 256 888T277 837Q277 807 256 786T205 765Q175 765 154 786T133 837Z"  />
<glyph unicode="&#xC5;" horiz-adv-x="630" d="M210 641Q223 676 251 700T317 724Q357 724 384 701T424 641L620 97Q625 85 626 75T628 60Q628 31 608 13T559 -6Q527 -6 511 8T486 46L456 140H178L148 47Q140 24 124 9T76 -6Q46 -6 24 14T2 64Q2 76 4 84T9 97L210 641ZM221 278H411L318 568H316L221 278ZM216 840Q216 882 244 910T315 939Q357 939 385 911T414 840Q414 798 386 770T315 741Q273 741 245 769T216 840ZM270 840Q270 821 283 808T315 795Q334 795 347 808T360 840Q360 859 347 872T315 885Q296 885 283 872T270 840Z"  />
<glyph unicode="&#xC6;" horiz-adv-x="833" d="M320 678Q326 689 339 700T390 712H741Q777 712 794 691T812 643Q812 617 794 596T741 574H565V428H729Q766 428 784 407T802 359Q802 333 784 312T729 290H565V138H750Q786 138 803 117T821 69Q821 43 803 22T750 0H492Q459 0 437 20T415 75V125H186L139 43Q127 22 110 8T68 -6Q39 -6 18 11T-4 57Q-4 74 -1 83T10 105L320 678ZM255 260H415V550H413L255 260Z"  />
<glyph unicode="&#xC7;" horiz-adv-x="611" d="M343 -51Q348 -51 354 -50T365 -48Q397 -48 418 -68T440 -124Q440 -148 430 -166T403 -195T367 -212T329 -218Q318 -218 303 -217T273 -210T249 -195T239 -168Q239 -157 245 -150T263 -142Q271 -142 284 -146T311 -152Q325 -153 334 -148T344 -124Q344 -104 334 -100T310 -96Q297 -94 287 -92T276 -73Q276 -66 284 -53T298 -33L315 -9Q248 -1 193 30T99 110T39 221T17 356Q17 434 42 501T112 617T221 695T361 724Q388 724 425 719T495 701T552 667T576 612Q576 585 559 565T514 545Q499 545 485 550T454 562T415 574T361 580Q314 580 279 562T221 512T185 440T173 353Q173 308 185 268T221 198T280 150T361 132Q392 132 415 138T457 153T490 167T520 174Q537 174 549 167T570 149T582 127T586 106Q586 71 564 49T508 14T438 -5T373 -11L343 -51Z"  />
<glyph unicode="&#xC8;" horiz-adv-x="463" d="M45 625Q45 663 64 687T123 712H371Q407 712 424 691T442 643Q442 617 424 596T371 574H195V428H359Q396 428 414 407T432 359Q432 333 414 312T359 290H195V138H380Q416 138 433 117T451 69Q451 43 433 22T380 0H122Q89 0 67 20T45 75V625ZM150 814Q109 831 109 873Q109 883 113 894T124 914T142 929T163 935Q167 935 173 934T196 926T243 908T327 873Q340 866 347 855T355 833Q355 820 351 807T340 784T323 767T302 760Q290 760 277 765Q270 767 262 770L150 814Z"  />
<glyph unicode="&#xC9;" horiz-adv-x="463" d="M45 625Q45 663 64 687T123 712H371Q407 712 424 691T442 643Q442 617 424 596T371 574H195V428H359Q396 428 414 407T432 359Q432 333 414 312T359 290H195V138H380Q416 138 433 117T451 69Q451 43 433 22T380 0H122Q89 0 67 20T45 75V625ZM201 770Q193 767 186 765Q180 763 173 762T161 760Q150 760 140 766T123 783T112 807T108 833Q108 844 115 855T136 873Q189 895 219 907T266 926T289 933T300 935Q311 935 321 929T338 914T350 894T354 873Q354 831 313 814L201 770Z"  />
<glyph unicode="&#xCA;" horiz-adv-x="463" d="M45 625Q45 663 64 687T123 712H371Q407 712 424 691T442 643Q442 617 424 596T371 574H195V428H359Q396 428 414 407T432 359Q432 333 414 312T359 290H195V138H380Q416 138 433 117T451 69Q451 43 433 22T380 0H122Q89 0 67 20T45 75V625ZM232 926L338 883Q360 874 372 860T384 822Q384 798 366 778T323 758Q314 758 300 764T271 776L232 793L193 776Q179 770 165 764T141 758Q117 758 99 778T80 822Q80 846 92 860T126 883L232 926Z"  />
<glyph unicode="&#xCB;" horiz-adv-x="463" d="M45 625Q45 663 64 687T123 712H371Q407 712 424 691T442 643Q442 617 424 596T371 574H195V428H359Q396 428 414 407T432 359Q432 333 414 312T359 290H195V138H380Q416 138 433 117T451 69Q451 43 433 22T380 0H122Q89 0 67 20T45 75V625ZM270 837Q270 867 291 888T342 909Q372 909 393 888T414 837Q414 807 393 786T342 765Q312 765 291 786T270 837ZM50 837Q50 867 71 888T122 909Q152 909 173 888T194 837Q194 807 173 786T122 765Q92 765 71 786T50 837Z"  />
<glyph unicode="&#xCC;" horiz-adv-x="240" d="M45 640Q45 678 66 698T120 718Q152 718 173 698T195 640V72Q195 34 174 14T120 -6Q88 -6 67 14T45 72V640ZM39 814Q-2 831 -2 873Q-2 883 2 894T13 914T31 929T52 935Q56 935 62 934T85 926T132 908T216 873Q229 866 236 855T244 833Q244 820 240 807T229 784T212 767T191 760Q179 760 166 765Q159 767 151 770L39 814Z"  />
<glyph unicode="&#xCD;" horiz-adv-x="240" d="M45 640Q45 678 66 698T120 718Q152 718 173 698T195 640V72Q195 34 174 14T120 -6Q88 -6 67 14T45 72V640ZM91 770Q83 767 76 765Q70 763 63 762T51 760Q40 760 30 766T13 783T2 807T-2 833Q-2 844 5 855T26 873Q79 895 109 907T156 926T179 933T190 935Q201 935 211 929T228 914T240 894T244 873Q244 831 203 814L91 770Z"  />
<glyph unicode="&#xCE;" horiz-adv-x="240" d="M45 640Q45 678 66 698T120 718Q152 718 173 698T195 640V72Q195 34 174 14T120 -6Q88 -6 67 14T45 72V640ZM120 926L226 883Q248 874 260 860T272 822Q272 798 254 778T211 758Q202 758 188 764T159 776L120 793L81 776Q67 770 53 764T29 758Q5 758 -13 778T-32 822Q-32 846 -20 860T14 883L120 926Z"  />
<glyph unicode="&#xCF;" horiz-adv-x="240" d="M45 640Q45 678 66 698T120 718Q152 718 173 698T195 640V72Q195 34 174 14T120 -6Q88 -6 67 14T45 72V640ZM158 837Q158 867 179 888T230 909Q260 909 281 888T302 837Q302 807 281 786T230 765Q200 765 179 786T158 837ZM-62 837Q-62 867 -41 888T10 909Q40 909 61 888T82 837Q82 807 61 786T10 765Q-20 765 -41 786T-62 837Z"  />
<glyph unicode="&#xD0;" horiz-adv-x="667" d="M45 304H18Q-14 304 -29 322T-45 361Q-45 383 -30 400T18 418H45V635Q45 670 66 691T122 712H288Q372 712 437 686T548 612T616 497T640 346Q640 267 616 203T546 94T438 25T298 0H124Q112 0 98 3T72 16T53 39T45 75V304ZM195 418H277Q309 418 324 401T340 361Q340 340 325 322T277 304H195V138H296Q344 138 379 154T438 200T473 269T484 353Q484 401 473 441T437 511T376 557T286 574H195V418Z"  />
<glyph unicode="&#xD1;" horiz-adv-x="685" d="M39 640Q39 678 60 698T114 718Q128 718 147 709T177 685L494 262H496V640Q496 678 517 698T571 718Q603 718 624 698T646 640V72Q646 34 625 14T571 -6Q557 -6 538 3T508 27L191 445H189V72Q189 34 168 14T114 -6Q82 -6 61 14T39 72V640ZM227 767Q208 767 193 783T177 819Q177 861 205 884T272 907Q289 907 305 903T336 895T363 886T384 882Q391 882 400 886T420 896T441 906T462 911Q485 911 497 894T509 855Q509 836 501 820T478 793T447 775T411 768Q399 768 383 772T351 780T321 789T298 793Q289 793 282 789T266 780T249 771T227 767Z"  />
<glyph unicode="&#xD2;" horiz-adv-x="722" d="M361 126Q409 126 444 145T502 195T537 268T549 356Q549 401 537 443T502 516T443 567T361 586Q314 586 279 567T221 517T185 443T173 356Q173 310 184 269T219 196T278 145T361 126ZM361 -12Q285 -12 222 16T113 94T42 211T17 356Q17 434 42 501T112 617T221 695T361 724Q436 724 499 695T608 616T679 499T705 356Q705 278 680 211T610 95T502 17T361 -12ZM276 814Q235 831 235 873Q235 883 239 894T250 914T268 929T289 935Q293 935 299 934T322 926T369 908T453 873Q466 866 473 855T481 833Q481 820 477 807T466 784T449 767T428 760Q416 760 403 765Q396 767 388 770L276 814Z"  />
<glyph unicode="&#xD3;" horiz-adv-x="722" d="M361 126Q409 126 444 145T502 195T537 268T549 356Q549 401 537 443T502 516T443 567T361 586Q314 586 279 567T221 517T185 443T173 356Q173 310 184 269T219 196T278 145T361 126ZM361 -12Q285 -12 222 16T113 94T42 211T17 356Q17 434 42 501T112 617T221 695T361 724Q436 724 499 695T608 616T679 499T705 356Q705 278 680 211T610 95T502 17T361 -12ZM333 770Q325 767 318 765Q312 763 305 762T293 760Q282 760 272 766T255 783T244 807T240 833Q240 844 247 855T268 873Q321 895 351 907T398 926T421 933T432 935Q443 935 453 929T470 914T482 894T486 873Q486 831 445 814L333 770Z"  />
<glyph unicode="&#xD4;" horiz-adv-x="722" d="M361 126Q409 126 444 145T502 195T537 268T549 356Q549 401 537 443T502 516T443 567T361 586Q314 586 279 567T221 517T185 443T173 356Q173 310 184 269T219 196T278 145T361 126ZM361 -12Q285 -12 222 16T113 94T42 211T17 356Q17 434 42 501T112 617T221 695T361 724Q436 724 499 695T608 616T679 499T705 356Q705 278 680 211T610 95T502 17T361 -12ZM361 926L467 883Q489 874 501 860T513 822Q513 798 495 778T452 758Q443 758 429 764T400 776L361 793L322 776Q308 770 294 764T270 758Q246 758 228 778T209 822Q209 846 221 860T255 883L361 926Z"  />
<glyph unicode="&#xD5;" horiz-adv-x="722" d="M361 126Q409 126 444 145T502 195T537 268T549 356Q549 401 537 443T502 516T443 567T361 586Q314 586 279 567T221 517T185 443T173 356Q173 310 184 269T219 196T278 145T361 126ZM361 -12Q285 -12 222 16T113 94T42 211T17 356Q17 434 42 501T112 617T221 695T361 724Q436 724 499 695T608 616T679 499T705 356Q705 278 680 211T610 95T502 17T361 -12ZM245 767Q226 767 211 783T195 819Q195 861 223 884T290 907Q307 907 323 903T354 895T381 886T402 882Q409 882 418 886T438 896T459 906T480 911Q503 911 515 894T527 855Q527 836 519 820T496 793T465 775T429 768Q417 768 401 772T369 780T339 789T316 793Q307 793 300 789T284 780T267 771T245 767Z"  />
<glyph unicode="&#xD6;" horiz-adv-x="722" d="M361 126Q409 126 444 145T502 195T537 268T549 356Q549 401 537 443T502 516T443 567T361 586Q314 586 279 567T221 517T185 443T173 356Q173 310 184 269T219 196T278 145T361 126ZM361 -12Q285 -12 222 16T113 94T42 211T17 356Q17 434 42 501T112 617T221 695T361 724Q436 724 499 695T608 616T679 499T705 356Q705 278 680 211T610 95T502 17T361 -12ZM399 837Q399 867 420 888T471 909Q501 909 522 888T543 837Q543 807 522 786T471 765Q441 765 420 786T399 837ZM179 837Q179 867 200 888T251 909Q281 909 302 888T323 837Q323 807 302 786T251 765Q221 765 200 786T179 837Z"  />
<glyph unicode="&#xD7;" horiz-adv-x="600" d="M300 335L424 459Q443 478 465 478Q479 478 488 473T506 459Q514 451 519 440T525 415Q525 404 520 395T506 377L382 253L506 129Q525 110 525 88Q525 74 520 65T506 47Q498 39 487 34T462 28Q451 28 442 33T424 47L300 171L176 47Q168 39 159 34T138 28Q125 28 114 33T94 47Q86 55 81 64T75 88Q75 110 94 129L218 253L94 377Q86 385 81 394T75 415Q75 428 80 439T94 459Q102 467 111 472T135 478Q157 478 176 459L300 335Z"  />
<glyph unicode="&#xD8;" horiz-adv-x="722" d="M244 169Q264 149 293 138T361 126Q409 126 444 145T502 195T537 268T549 356Q549 387 544 415T527 470L244 169ZM84 129Q52 176 35 233T17 356Q17 434 42 501T112 617T221 695T361 724Q427 724 481 704T577 648L625 696Q634 707 647 718T681 730Q695 730 708 720T722 695Q722 688 721 679T712 662L636 584Q668 536 686 479T705 356Q705 278 680 211T610 95T502 17T361 -12Q293 -12 239 8T143 64L81 1Q73 -7 64 -12T42 -18Q27 -18 14 -5T0 27Q0 36 4 43T14 58L84 129ZM477 544Q456 564 428 575T361 586Q314 586 279 567T221 517T185 443T173 356Q173 326 178 298T194 244L477 544Z"  />
<glyph unicode="&#xD9;" horiz-adv-x="685" d="M39 640Q39 678 60 698T114 718Q146 718 167 698T189 640V291Q189 256 199 226T230 174T278 139T343 126Q377 126 405 139T453 175T485 228T496 291V640Q496 678 517 698T571 718Q603 718 624 698T646 640V283Q646 220 622 166T557 73T460 11T343 -12Q280 -12 225 10T129 71T63 165T39 283V640ZM263 814Q222 831 222 873Q222 883 226 894T237 914T255 929T276 935Q280 935 286 934T309 926T356 908T440 873Q453 866 460 855T468 833Q468 820 464 807T453 784T436 767T415 760Q403 760 390 765Q383 767 375 770L263 814Z"  />
<glyph unicode="&#xDA;" horiz-adv-x="685" d="M39 640Q39 678 60 698T114 718Q146 718 167 698T189 640V291Q189 256 199 226T230 174T278 139T343 126Q377 126 405 139T453 175T485 228T496 291V640Q496 678 517 698T571 718Q603 718 624 698T646 640V283Q646 220 622 166T557 73T460 11T343 -12Q280 -12 225 10T129 71T63 165T39 283V640ZM311 770Q303 767 296 765Q290 763 283 762T271 760Q260 760 250 766T233 783T222 807T218 833Q218 844 225 855T246 873Q299 895 329 907T376 926T399 933T410 935Q421 935 431 929T448 914T460 894T464 873Q464 831 423 814L311 770Z"  />
<glyph unicode="&#xDB;" horiz-adv-x="685" d="M39 640Q39 678 60 698T114 718Q146 718 167 698T189 640V291Q189 256 199 226T230 174T278 139T343 126Q377 126 405 139T453 175T485 228T496 291V640Q496 678 517 698T571 718Q603 718 624 698T646 640V283Q646 220 622 166T557 73T460 11T343 -12Q280 -12 225 10T129 71T63 165T39 283V640ZM343 926L449 883Q471 874 483 860T495 822Q495 798 477 778T434 758Q425 758 411 764T382 776L343 793L304 776Q290 770 276 764T252 758Q228 758 210 778T191 822Q191 846 203 860T237 883L343 926Z"  />
<glyph unicode="&#xDC;" horiz-adv-x="685" d="M39 640Q39 678 60 698T114 718Q146 718 167 698T189 640V291Q189 256 199 226T230 174T278 139T343 126Q377 126 405 139T453 175T485 228T496 291V640Q496 678 517 698T571 718Q603 718 624 698T646 640V283Q646 220 622 166T557 73T460 11T343 -12Q280 -12 225 10T129 71T63 165T39 283V640ZM381 837Q381 867 402 888T453 909Q483 909 504 888T525 837Q525 807 504 786T453 765Q423 765 402 786T381 837ZM161 837Q161 867 182 888T233 909Q263 909 284 888T305 837Q305 807 284 786T233 765Q203 765 182 786T161 837Z"  />
<glyph unicode="&#xDD;" horiz-adv-x="536" d="M193 334L4 600Q-10 620 -10 645Q-10 675 10 696T62 718Q103 718 124 688L268 479L412 688Q433 718 474 718Q506 718 526 697T546 645Q546 620 532 600L343 334V67Q343 39 326 17T268 -6Q228 -6 211 16T193 67V334ZM239 770Q231 767 224 765Q218 763 211 762T199 760Q188 760 178 766T161 783T150 807T146 833Q146 844 153 855T174 873Q227 895 257 907T304 926T327 933T338 935Q349 935 359 929T376 914T388 894T392 873Q392 831 351 814L239 770Z"  />
<glyph unicode="&#xDE;" horiz-adv-x="556" d="M195 268H297Q345 268 372 298T400 374Q400 419 373 449T297 480H195V268ZM45 640Q45 678 66 698T120 718Q152 718 173 698T195 640V612H300Q355 612 402 595T483 547T536 471T556 373Q556 318 536 274T482 200T403 153T306 136H195V72Q195 34 174 14T120 -6Q88 -6 67 14T45 72V640Z"  />
<glyph unicode="&#xDF;" horiz-adv-x="556" d="M39 516Q39 569 54 615T98 696T170 750T270 770Q315 770 354 755T423 713T469 648T486 564Q486 524 470 485T418 423Q450 414 473 394T512 348T534 290T542 227Q542 186 527 144T483 67T414 10T323 -12Q277 -12 257 9T236 60Q236 78 243 89T262 107T288 118T318 125Q350 132 374 159T398 227Q398 269 386 291T355 324T314 339T274 350T243 370T230 411Q230 435 238 447T260 465T289 476T317 490T339 516T348 564Q348 591 327 614T270 638Q241 638 224 628T198 600T186 561T183 516V74Q183 38 163 16T111 -6Q79 -6 59 16T39 74V516Z"  />
<glyph unicode="&#xE0;" horiz-adv-x="574" d="M533 88Q533 74 532 58T525 27T504 4T464 -6Q432 -6 418 10T395 55Q339 -12 258 -12Q207 -12 164 8T88 65T38 153T20 265Q20 324 38 375T89 463T165 522T258 544Q298 544 334 528T395 478Q398 504 418 521T464 538Q490 538 504 529T524 505T532 475T533 444V88ZM164 265Q164 239 171 213T192 167T227 133T278 120Q306 120 327 133T361 166T382 213T389 265Q389 291 383 317T362 364T327 398T278 412Q248 412 227 399T191 364T171 317T164 265ZM206 652Q165 669 165 711Q165 721 169 732T180 752T198 767T219 773Q223 773 229 772T252 764T299 746T383 711Q396 704 403 693T411 671Q411 658 407 645T396 622T379 605T358 598Q346 598 333 603Q326 605 318 608L206 652Z"  />
<glyph unicode="&#xE1;" horiz-adv-x="574" d="M533 88Q533 74 532 58T525 27T504 4T464 -6Q432 -6 418 10T395 55Q339 -12 258 -12Q207 -12 164 8T88 65T38 153T20 265Q20 324 38 375T89 463T165 522T258 544Q298 544 334 528T395 478Q398 504 418 521T464 538Q490 538 504 529T524 505T532 475T533 444V88ZM164 265Q164 239 171 213T192 167T227 133T278 120Q306 120 327 133T361 166T382 213T389 265Q389 291 383 317T362 364T327 398T278 412Q248 412 227 399T191 364T171 317T164 265ZM257 609Q249 606 242 604Q236 602 229 601T217 599Q206 599 196 605T179 622T168 646T164 672Q164 683 171 694T192 712Q245 734 275 746T322 765T345 772T356 774Q367 774 377 768T394 753T406 733T410 712Q410 670 369 653L257 609Z"  />
<glyph unicode="&#xE2;" horiz-adv-x="574" d="M533 88Q533 74 532 58T525 27T504 4T464 -6Q432 -6 418 10T395 55Q339 -12 258 -12Q207 -12 164 8T88 65T38 153T20 265Q20 324 38 375T89 463T165 522T258 544Q298 544 334 528T395 478Q398 504 418 521T464 538Q490 538 504 529T524 505T532 475T533 444V88ZM164 265Q164 239 171 213T192 167T227 133T278 120Q306 120 327 133T361 166T382 213T389 265Q389 291 383 317T362 364T327 398T278 412Q248 412 227 399T191 364T171 317T164 265ZM287 764L393 721Q415 712 427 698T439 660Q439 636 421 616T378 596Q369 596 355 602T326 614L287 631L248 614Q234 608 220 602T196 596Q172 596 154 616T135 660Q135 684 147 698T181 721L287 764Z"  />
<glyph unicode="&#xE3;" horiz-adv-x="574" d="M533 88Q533 74 532 58T525 27T504 4T464 -6Q432 -6 418 10T395 55Q339 -12 258 -12Q207 -12 164 8T88 65T38 153T20 265Q20 324 38 375T89 463T165 522T258 544Q298 544 334 528T395 478Q398 504 418 521T464 538Q490 538 504 529T524 505T532 475T533 444V88ZM164 265Q164 239 171 213T192 167T227 133T278 120Q306 120 327 133T361 166T382 213T389 265Q389 291 383 317T362 364T327 398T278 412Q248 412 227 399T191 364T171 317T164 265ZM171 605Q152 605 137 621T121 657Q121 699 149 722T216 745Q233 745 249 741T280 733T307 724T328 720Q335 720 344 724T364 734T385 744T406 749Q429 749 441 732T453 693Q453 674 445 658T422 631T391 613T355 606Q343 606 327 610T295 618T265 627T242 631Q233 631 226 627T210 618T193 609T171 605Z"  />
<glyph unicode="&#xE4;" horiz-adv-x="574" d="M533 88Q533 74 532 58T525 27T504 4T464 -6Q432 -6 418 10T395 55Q339 -12 258 -12Q207 -12 164 8T88 65T38 153T20 265Q20 324 38 375T89 463T165 522T258 544Q298 544 334 528T395 478Q398 504 418 521T464 538Q490 538 504 529T524 505T532 475T533 444V88ZM164 265Q164 239 171 213T192 167T227 133T278 120Q306 120 327 133T361 166T382 213T389 265Q389 291 383 317T362 364T327 398T278 412Q248 412 227 399T191 364T171 317T164 265ZM325 675Q325 705 346 726T397 747Q427 747 448 726T469 675Q469 645 448 624T397 603Q367 603 346 624T325 675ZM105 675Q105 705 126 726T177 747Q207 747 228 726T249 675Q249 645 228 624T177 603Q147 603 126 624T105 675Z"  />
<glyph unicode="&#xE5;" horiz-adv-x="574" d="M533 88Q533 74 532 58T525 27T504 4T464 -6Q432 -6 418 10T395 55Q339 -12 258 -12Q207 -12 164 8T88 65T38 153T20 265Q20 324 38 375T89 463T165 522T258 544Q298 544 334 528T395 478Q398 504 418 521T464 538Q490 538 504 529T524 505T532 475T533 444V88ZM164 265Q164 239 171 213T192 167T227 133T278 120Q306 120 327 133T361 166T382 213T389 265Q389 291 383 317T362 364T327 398T278 412Q248 412 227 399T191 364T171 317T164 265ZM188 678Q188 720 216 748T287 777Q329 777 357 749T386 678Q386 636 358 608T287 579Q245 579 217 607T188 678ZM242 678Q242 659 255 646T287 633Q306 633 319 646T332 678Q332 697 319 710T287 723Q268 723 255 710T242 678Z"  />
<glyph unicode="&#xE6;" horiz-adv-x="907" d="M164 265Q164 239 171 213T192 167T227 133T278 120Q306 120 327 133T361 166T382 213T389 265Q389 291 383 317T362 364T327 398T278 412Q248 412 227 399T191 364T171 317T164 265ZM527 218Q535 164 574 139T664 114Q691 114 714 123T758 143T795 163T826 172Q849 172 867 153T885 110Q885 87 864 65T808 26T732 -1T650 -12Q613 -12 577 -3T510 30Q505 15 494 5T456 -6Q423 -6 409 11T395 55H393Q367 23 334 6T258 -12Q207 -12 164 8T88 65T38 153T20 265Q20 324 38 375T89 463T165 522T258 544Q299 544 335 528T397 478H399Q399 507 416 522T456 538Q481 538 493 527T510 498Q536 522 568 533T636 544Q688 544 735 523T819 465T876 382T897 282Q897 250 882 234T834 218H527ZM753 314Q747 362 718 393T639 424Q591 424 561 392T525 314H753Z"  />
<glyph unicode="&#xE7;" horiz-adv-x="463" d="M269 -51Q274 -51 280 -50T291 -48Q323 -48 344 -68T366 -124Q366 -148 356 -166T329 -195T293 -212T255 -218Q244 -218 229 -217T199 -210T175 -195T165 -168Q165 -157 171 -150T189 -142Q197 -142 210 -146T237 -152Q251 -153 260 -148T270 -124Q270 -104 260 -100T236 -96Q223 -94 213 -92T202 -73Q202 -66 210 -53T224 -33L241 -9Q190 -2 150 22T80 83T36 167T20 265Q20 320 39 370T92 459T173 521T278 544Q299 544 329 540T387 525T434 497T454 453Q454 442 450 430T439 407T422 391T399 384Q385 384 372 388T346 398T317 407T285 412Q254 412 232 400T194 367T172 320T164 265Q164 238 172 212T195 166T233 133T285 120Q298 120 314 124T346 135T373 145T392 150Q418 150 436 132T454 87Q454 62 438 45T398 16T348 -2T300 -10L269 -51Z"  />
<glyph unicode="&#xE8;" horiz-adv-x="537" d="M157 218Q165 164 203 139T293 114Q321 114 344 123T388 143T425 163T456 172Q479 172 497 153T515 110Q515 87 494 65T438 26T362 -1T280 -12Q219 -12 170 9T85 67T30 154T10 265Q10 320 29 370T82 459T163 521T268 544Q326 544 374 520T456 458T508 374T527 282Q527 250 512 234T464 218H157ZM383 314Q377 362 348 393T268 424Q220 424 190 392T154 314H383ZM184 652Q143 669 143 711Q143 721 147 732T158 752T176 767T197 773Q201 773 207 772T230 764T277 746T361 711Q374 704 381 693T389 671Q389 658 385 645T374 622T357 605T336 598Q324 598 311 603Q304 605 296 608L184 652Z"  />
<glyph unicode="&#xE9;" horiz-adv-x="537" d="M157 218Q165 164 203 139T293 114Q321 114 344 123T388 143T425 163T456 172Q479 172 497 153T515 110Q515 87 494 65T438 26T362 -1T280 -12Q219 -12 170 9T85 67T30 154T10 265Q10 320 29 370T82 459T163 521T268 544Q326 544 374 520T456 458T508 374T527 282Q527 250 512 234T464 218H157ZM383 314Q377 362 348 393T268 424Q220 424 190 392T154 314H383ZM239 609Q231 606 224 604Q218 602 211 601T199 599Q188 599 178 605T161 622T150 646T146 672Q146 683 153 694T174 712Q227 734 257 746T304 765T327 772T338 774Q349 774 359 768T376 753T388 733T392 712Q392 670 351 653L239 609Z"  />
<glyph unicode="&#xEA;" horiz-adv-x="537" d="M157 218Q165 164 203 139T293 114Q321 114 344 123T388 143T425 163T456 172Q479 172 497 153T515 110Q515 87 494 65T438 26T362 -1T280 -12Q219 -12 170 9T85 67T30 154T10 265Q10 320 29 370T82 459T163 521T268 544Q326 544 374 520T456 458T508 374T527 282Q527 250 512 234T464 218H157ZM383 314Q377 362 348 393T268 424Q220 424 190 392T154 314H383ZM269 764L375 721Q397 712 409 698T421 660Q421 636 403 616T360 596Q351 596 337 602T308 614L269 631L230 614Q216 608 202 602T178 596Q154 596 136 616T117 660Q117 684 129 698T163 721L269 764Z"  />
<glyph unicode="&#xEB;" horiz-adv-x="537" d="M157 218Q165 164 203 139T293 114Q321 114 344 123T388 143T425 163T456 172Q479 172 497 153T515 110Q515 87 494 65T438 26T362 -1T280 -12Q219 -12 170 9T85 67T30 154T10 265Q10 320 29 370T82 459T163 521T268 544Q326 544 374 520T456 458T508 374T527 282Q527 250 512 234T464 218H157ZM383 314Q377 362 348 393T268 424Q220 424 190 392T154 314H383ZM307 675Q307 705 328 726T379 747Q409 747 430 726T451 675Q451 645 430 624T379 603Q349 603 328 624T307 675ZM87 675Q87 705 108 726T159 747Q189 747 210 726T231 675Q231 645 210 624T159 603Q129 603 108 624T87 675Z"  />
<glyph unicode="&#xEC;" horiz-adv-x="222" d="M39 458Q39 494 59 516T111 538Q143 538 163 516T183 458V74Q183 38 163 16T111 -6Q79 -6 59 16T39 74V458ZM29 652Q-12 669 -12 711Q-12 721 -8 732T3 752T21 767T42 773Q46 773 52 772T75 764T122 746T206 711Q219 704 226 693T234 671Q234 658 230 645T219 622T202 605T181 598Q169 598 156 603Q149 605 141 608L29 652Z"  />
<glyph unicode="&#xED;" horiz-adv-x="222" d="M39 458Q39 494 59 516T111 538Q143 538 163 516T183 458V74Q183 38 163 16T111 -6Q79 -6 59 16T39 74V458ZM81 609Q73 606 66 604Q60 602 53 601T41 599Q30 599 20 605T3 622T-8 646T-12 672Q-12 683 -5 694T16 712Q69 734 99 746T146 765T169 772T180 774Q191 774 201 768T218 753T230 733T234 712Q234 670 193 653L81 609Z"  />
<glyph unicode="&#xEE;" horiz-adv-x="222" d="M39 458Q39 494 59 516T111 538Q143 538 163 516T183 458V74Q183 38 163 16T111 -6Q79 -6 59 16T39 74V458ZM111 764L217 721Q239 712 251 698T263 660Q263 636 245 616T202 596Q193 596 179 602T150 614L111 631L72 614Q58 608 44 602T20 596Q-4 596 -22 616T-41 660Q-41 684 -29 698T5 721L111 764Z"  />
<glyph unicode="&#xEF;" horiz-adv-x="222" d="M39 458Q39 494 59 516T111 538Q143 538 163 516T183 458V74Q183 38 163 16T111 -6Q79 -6 59 16T39 74V458ZM149 675Q149 705 170 726T221 747Q251 747 272 726T293 675Q293 645 272 624T221 603Q191 603 170 624T149 675ZM-71 675Q-71 705 -50 726T1 747Q31 747 52 726T73 675Q73 645 52 624T1 603Q-29 603 -50 624T-71 675Z"  />
<glyph unicode="&#xF0;" horiz-adv-x="556" d="M278 -12Q220 -12 173 10T91 70T39 158T20 265Q20 312 38 358T88 440T164 498T262 521Q294 521 324 511T375 478L377 480Q358 522 329 556T265 611L199 576Q176 564 161 557T132 549Q120 549 109 557T97 585Q97 605 109 614T136 630L186 656Q176 660 164 665T141 677T123 693T116 714Q116 747 135 761T194 776Q229 776 262 761T324 729L404 772Q418 780 425 781T440 783Q454 783 464 773T475 745Q475 730 466 722T435 702L383 674Q425 634 454 592T502 502T528 402T536 289Q536 224 518 169T465 73T384 11T278 -12ZM277 395Q251 395 230 384T195 354T172 313T164 265Q164 239 171 213T192 167T227 133T278 120Q307 120 328 133T364 166T385 213T392 265Q391 290 384 313T362 355T326 384T277 395Z"  />
<glyph unicode="&#xF1;" horiz-adv-x="556" d="M41 458Q41 494 61 516T113 538Q141 538 158 524T179 485Q200 514 233 529T318 544Q360 544 396 531T459 493T500 432T515 350V74Q515 38 495 16T443 -6Q411 -6 391 16T371 74V325Q371 376 344 400T277 424Q232 424 209 396T185 325V74Q185 38 165 16T113 -6Q81 -6 61 16T41 74V458ZM162 605Q143 605 128 621T112 657Q112 699 140 722T207 745Q224 745 240 741T271 733T298 724T319 720Q326 720 335 724T355 734T376 744T397 749Q420 749 432 732T444 693Q444 674 436 658T413 631T382 613T346 606Q334 606 318 610T286 618T256 627T233 631Q224 631 217 627T201 618T184 609T162 605Z"  />
<glyph unicode="&#xF2;" horiz-adv-x="556" d="M278 544Q335 544 382 521T464 460T517 371T536 265Q536 209 518 159T465 70T384 10T278 -12Q220 -12 173 10T91 70T39 158T20 265Q20 320 39 370T92 459T173 521T278 544ZM278 412Q248 412 227 399T191 364T171 317T164 265Q164 239 171 213T192 167T227 133T278 120Q307 120 328 133T364 166T385 213T392 265Q392 291 386 317T365 364T330 398T278 412ZM198 652Q157 669 157 711Q157 721 161 732T172 752T190 767T211 773Q215 773 221 772T244 764T291 746T375 711Q388 704 395 693T403 671Q403 658 399 645T388 622T371 605T350 598Q338 598 325 603Q318 605 310 608L198 652Z"  />
<glyph unicode="&#xF3;" horiz-adv-x="556" d="M278 544Q335 544 382 521T464 460T517 371T536 265Q536 209 518 159T465 70T384 10T278 -12Q220 -12 173 10T91 70T39 158T20 265Q20 320 39 370T92 459T173 521T278 544ZM278 412Q248 412 227 399T191 364T171 317T164 265Q164 239 171 213T192 167T227 133T278 120Q307 120 328 133T364 166T385 213T392 265Q392 291 386 317T365 364T330 398T278 412ZM251 609Q243 606 236 604Q230 602 223 601T211 599Q200 599 190 605T173 622T162 646T158 672Q158 683 165 694T186 712Q239 734 269 746T316 765T339 772T350 774Q361 774 371 768T388 753T400 733T404 712Q404 670 363 653L251 609Z"  />
<glyph unicode="&#xF4;" horiz-adv-x="556" d="M278 544Q335 544 382 521T464 460T517 371T536 265Q536 209 518 159T465 70T384 10T278 -12Q220 -12 173 10T91 70T39 158T20 265Q20 320 39 370T92 459T173 521T278 544ZM278 412Q248 412 227 399T191 364T171 317T164 265Q164 239 171 213T192 167T227 133T278 120Q307 120 328 133T364 166T385 213T392 265Q392 291 386 317T365 364T330 398T278 412ZM278 764L384 721Q406 712 418 698T430 660Q430 636 412 616T369 596Q360 596 346 602T317 614L278 631L239 614Q225 608 211 602T187 596Q163 596 145 616T126 660Q126 684 138 698T172 721L278 764Z"  />
<glyph unicode="&#xF5;" horiz-adv-x="556" d="M278 544Q335 544 382 521T464 460T517 371T536 265Q536 209 518 159T465 70T384 10T278 -12Q220 -12 173 10T91 70T39 158T20 265Q20 320 39 370T92 459T173 521T278 544ZM278 412Q248 412 227 399T191 364T171 317T164 265Q164 239 171 213T192 167T227 133T278 120Q307 120 328 133T364 166T385 213T392 265Q392 291 386 317T365 364T330 398T278 412ZM162 605Q143 605 128 621T112 657Q112 699 140 722T207 745Q224 745 240 741T271 733T298 724T319 720Q326 720 335 724T355 734T376 744T397 749Q420 749 432 732T444 693Q444 674 436 658T413 631T382 613T346 606Q334 606 318 610T286 618T256 627T233 631Q224 631 217 627T201 618T184 609T162 605Z"  />
<glyph unicode="&#xF6;" horiz-adv-x="556" d="M278 544Q335 544 382 521T464 460T517 371T536 265Q536 209 518 159T465 70T384 10T278 -12Q220 -12 173 10T91 70T39 158T20 265Q20 320 39 370T92 459T173 521T278 544ZM278 412Q248 412 227 399T191 364T171 317T164 265Q164 239 171 213T192 167T227 133T278 120Q307 120 328 133T364 166T385 213T392 265Q392 291 386 317T365 364T330 398T278 412ZM316 675Q316 705 337 726T388 747Q418 747 439 726T460 675Q460 645 439 624T388 603Q358 603 337 624T316 675ZM96 675Q96 705 117 726T168 747Q198 747 219 726T240 675Q240 645 219 624T168 603Q138 603 117 624T96 675Z"  />
<glyph unicode="&#xF7;" horiz-adv-x="600" d="M505 313Q533 313 549 297T565 253Q565 226 549 210T505 193H95Q67 193 51 209T35 253Q35 280 51 296T95 313H505ZM222 46Q222 78 245 101T300 124Q332 124 355 101T378 46Q378 14 355 -9T300 -32Q268 -32 245 -9T222 46ZM222 460Q222 492 245 515T300 538Q332 538 355 515T378 460Q378 428 355 405T300 382Q268 382 245 405T222 460Z"  />
<glyph unicode="&#xF8;" horiz-adv-x="556" d="M344 388Q318 412 278 412Q248 412 227 399T191 364T171 317T164 265Q164 235 173 210L344 388ZM68 101Q20 172 20 265Q20 320 39 370T92 459T173 521T278 544Q325 544 365 529T437 485L483 533Q496 548 510 548Q527 548 539 536T551 507Q551 490 541 480L489 426Q512 391 524 350T536 265Q536 209 518 159T465 70T384 10T278 -12Q231 -12 192 2T121 42L71 -10Q66 -15 60 -18T46 -22Q29 -22 17 -10T5 19Q5 36 15 46L68 101ZM216 142Q241 120 278 120Q307 120 328 133T364 166T385 213T392 265Q392 293 385 318L216 142Z"  />
<glyph unicode="&#xF9;" horiz-adv-x="556" d="M41 458Q41 494 61 516T113 538Q145 538 165 516T185 458V201Q185 156 213 132T278 108Q314 108 342 132T371 201V458Q371 494 391 516T443 538Q475 538 495 516T515 458V198Q515 101 454 45T278 -12Q163 -12 102 44T41 198V458ZM193 652Q152 669 152 711Q152 721 156 732T167 752T185 767T206 773Q210 773 216 772T239 764T286 746T370 711Q383 704 390 693T398 671Q398 658 394 645T383 622T366 605T345 598Q333 598 320 603Q313 605 305 608L193 652Z"  />
<glyph unicode="&#xFA;" horiz-adv-x="556" d="M41 458Q41 494 61 516T113 538Q145 538 165 516T185 458V201Q185 156 213 132T278 108Q314 108 342 132T371 201V458Q371 494 391 516T443 538Q475 538 495 516T515 458V198Q515 101 454 45T278 -12Q163 -12 102 44T41 198V458ZM248 609Q240 606 233 604Q227 602 220 601T208 599Q197 599 187 605T170 622T159 646T155 672Q155 683 162 694T183 712Q236 734 266 746T313 765T336 772T347 774Q358 774 368 768T385 753T397 733T401 712Q401 670 360 653L248 609Z"  />
<glyph unicode="&#xFB;" horiz-adv-x="556" d="M41 458Q41 494 61 516T113 538Q145 538 165 516T185 458V201Q185 156 213 132T278 108Q314 108 342 132T371 201V458Q371 494 391 516T443 538Q475 538 495 516T515 458V198Q515 101 454 45T278 -12Q163 -12 102 44T41 198V458ZM278 764L384 721Q406 712 418 698T430 660Q430 636 412 616T369 596Q360 596 346 602T317 614L278 631L239 614Q225 608 211 602T187 596Q163 596 145 616T126 660Q126 684 138 698T172 721L278 764Z"  />
<glyph unicode="&#xFC;" horiz-adv-x="556" d="M41 458Q41 494 61 516T113 538Q145 538 165 516T185 458V201Q185 156 213 132T278 108Q314 108 342 132T371 201V458Q371 494 391 516T443 538Q475 538 495 516T515 458V198Q515 101 454 45T278 -12Q163 -12 102 44T41 198V458ZM316 675Q316 705 337 726T388 747Q418 747 439 726T460 675Q460 645 439 624T388 603Q358 603 337 624T316 675ZM96 675Q96 705 117 726T168 747Q198 747 219 726T240 675Q240 645 219 624T168 603Q138 603 117 624T96 675Z"  />
<glyph unicode="&#xFD;" horiz-adv-x="481" d="M5 439Q2 447 0 456T-2 476Q-2 489 4 500T21 520T43 533T66 538Q92 538 110 525T138 487L237 216L343 487Q352 511 370 524T415 538Q426 538 438 534T460 521T476 501T483 476Q483 454 476 439L235 -161Q226 -184 210 -201T167 -218Q130 -218 111 -199T92 -156Q92 -145 94 -135T101 -114L164 42L5 439ZM210 609Q202 606 195 604Q189 602 182 601T170 599Q159 599 149 605T132 622T121 646T117 672Q117 683 124 694T145 712Q198 734 228 746T275 765T298 772T309 774Q320 774 330 768T347 753T359 733T363 712Q363 670 322 653L210 609Z"  />
<glyph unicode="&#xFE;" horiz-adv-x="574" d="M41 690Q41 726 61 748T113 770Q145 770 165 748T185 690V478H187Q206 511 243 527T317 544Q371 544 415 521T490 460T537 373T554 273Q554 223 539 172T494 80T421 14T322 -12Q284 -12 249 0T185 38V-138Q185 -174 165 -196T113 -218Q81 -218 61 -196T41 -138V690ZM185 262Q185 236 192 211T213 165T248 133T298 120Q326 120 347 133T382 168T403 215T410 267Q410 292 403 318T382 365T347 399T298 412Q268 412 247 399T212 364T192 315T185 262Z"  />
<glyph unicode="&#xFF;" horiz-adv-x="481" d="M5 439Q2 447 0 456T-2 476Q-2 489 4 500T21 520T43 533T66 538Q92 538 110 525T138 487L237 216L343 487Q352 511 370 524T415 538Q426 538 438 534T460 521T476 501T483 476Q483 454 476 439L235 -161Q226 -184 210 -201T167 -218Q130 -218 111 -199T92 -156Q92 -145 94 -135T101 -114L164 42L5 439ZM279 675Q279 705 300 726T351 747Q381 747 402 726T423 675Q423 645 402 624T351 603Q321 603 300 624T279 675ZM59 675Q59 705 80 726T131 747Q161 747 182 726T203 675Q203 645 182 624T131 603Q101 603 80 624T59 675Z"  />
<glyph unicode="&#x131;" horiz-adv-x="222" d="M39 458Q39 494 59 516T111 538Q143 538 163 516T183 458V74Q183 38 163 16T111 -6Q79 -6 59 16T39 74V458Z"  />
<glyph unicode="&#x152;" horiz-adv-x="963" d="M693 428H859Q896 428 914 407T932 359Q932 333 914 312T859 290H693V138H880Q916 138 933 117T951 69Q951 43 933 22T880 0H602Q585 0 576 4T563 17T558 35T557 57H555Q538 35 516 22T467 1T414 -9T361 -12Q285 -12 222 16T113 94T42 211T17 356Q17 434 42 501T112 617T221 695T361 724Q413 724 465 707T556 649L558 651Q558 671 561 683T572 701T595 710T630 712H871Q907 712 924 691T942 643Q942 617 924 596T871 574H693V428ZM173 356Q173 310 184 269T219 196T278 145T361 126Q409 126 444 145T502 195T537 268T549 356Q549 401 537 443T502 516T443 567T361 586Q314 586 279 567T221 517T185 443T173 356Z"  />
<glyph unicode="&#x153;" horiz-adv-x="907" d="M753 314Q747 362 718 393T639 424Q591 424 561 392T524 314H753ZM527 218Q535 164 574 139T664 114Q691 114 714 123T758 143T795 163T826 172Q849 172 867 153T885 110Q885 87 864 65T808 26T732 -1T650 -12Q587 -12 539 10T459 71Q429 34 384 11T278 -12Q220 -12 173 10T91 70T39 158T20 265Q20 320 39 370T92 459T173 521T278 544Q338 544 384 521T464 463Q490 496 534 520T636 544Q688 544 735 523T819 465T876 382T897 282Q897 250 882 234T834 218H527ZM164 265Q164 239 171 213T192 167T227 133T278 120Q307 120 328 133T364 166T385 213T392 265Q392 291 386 317T365 364T330 398T278 412Q248 412 227 399T191 364T171 317T164 265Z"  />
<glyph unicode="&#x160;" horiz-adv-x="537" d="M270 724Q291 724 324 720T388 704T443 673T466 624Q466 595 448 573T399 550Q384 550 370 554T340 565T306 575T266 580Q234 580 209 564T184 515Q184 489 208 475T270 450T351 426T431 388T493 324T518 220Q518 166 498 123T442 50T361 4T262 -12Q233 -12 192 -8T112 9T46 43T19 100Q19 129 37 150T86 171Q104 171 123 165T163 152T207 138T254 132Q304 132 330 156T356 218Q356 247 332 263T270 291T189 315T109 348T47 404T22 497Q22 549 42 591T96 663T175 708T270 724ZM163 797Q141 805 129 819T117 858Q117 882 135 902T178 922Q187 922 201 916T230 904L269 887L308 904Q322 910 336 916T360 922Q384 922 402 902T421 858Q421 834 409 820T375 797L269 754L163 797Z"  />
<glyph unicode="&#x161;" horiz-adv-x="426" d="M403 440Q403 415 387 396T344 376Q334 376 319 382T287 397T252 411T215 418Q195 418 181 409T166 378Q166 361 184 350T231 327T291 304T351 272T397 226T416 157Q416 121 402 90T360 37T295 1T211 -12Q181 -12 146 -4T80 19T30 54T10 99Q10 107 14 118T26 139T45 156T72 163Q93 163 109 156T142 139T176 122T221 114Q254 114 266 124T278 155Q278 171 260 182T213 205T153 228T93 260T47 307T28 376Q28 413 42 444T83 497T144 532T223 544Q250 544 281 538T340 519T385 487T403 440ZM107 635Q85 643 73 657T61 696Q61 720 79 740T122 760Q131 760 145 754T174 742L213 725L252 742Q266 748 280 754T304 760Q328 760 346 740T365 696Q365 672 353 658T319 635L213 592L107 635Z"  />
<glyph unicode="&#x178;" horiz-adv-x="536" d="M193 334L4 600Q-10 620 -10 645Q-10 675 10 696T62 718Q103 718 124 688L268 479L412 688Q433 718 474 718Q506 718 526 697T546 645Q546 620 532 600L343 334V67Q343 39 326 17T268 -6Q228 -6 211 16T193 67V334ZM306 837Q306 867 327 888T378 909Q408 909 429 888T450 837Q450 807 429 786T378 765Q348 765 327 786T306 837ZM86 837Q86 867 107 888T158 909Q188 909 209 888T230 837Q230 807 209 786T158 765Q128 765 107 786T86 837Z"  />
<glyph unicode="&#x17D;" horiz-adv-x="593" d="M499 132Q531 132 551 115T571 66Q571 37 549 19T499 0H106Q66 0 44 20T22 72Q22 102 42 130L364 580H101Q71 580 51 596T31 644Q31 673 51 692T101 712H467Q511 712 531 689T551 640Q551 623 545 606T529 576L209 132H499ZM191 797Q169 805 157 819T145 858Q145 882 163 902T206 922Q215 922 229 916T258 904L297 887L336 904Q350 910 364 916T388 922Q412 922 430 902T449 858Q449 834 437 820T403 797L297 754L191 797Z"  />
<glyph unicode="&#x17E;" horiz-adv-x="481" d="M250 406H83Q56 406 37 422T18 469Q18 499 37 515T83 532H410Q415 532 423 531T438 524T451 511T457 487Q457 473 454 464T442 444L215 126H405Q432 126 451 110T470 63Q470 33 451 17T405 0H70Q46 0 29 12T11 49Q11 61 15 71T24 88L250 406ZM135 635Q113 643 101 657T89 696Q89 720 107 740T150 760Q159 760 173 754T202 742L241 725L280 742Q294 748 308 754T332 760Q356 760 374 740T393 696Q393 672 381 658T347 635L241 592L135 635Z"  />
<glyph unicode="&#x192;" horiz-adv-x="574" d="M250 574Q262 646 301 685T415 724Q431 724 448 721T480 711T504 690T513 656Q513 620 490 609T435 598Q412 598 403 583T389 544L367 423H402Q435 423 453 407T472 361Q472 324 448 311T377 297H344L281 -49Q275 -85 263 -116T231 -169T181 -205T111 -218Q93 -218 76 -216T45 -207T23 -187T14 -153Q14 -130 22 -118T43 -100T69 -93T93 -92Q105 -92 113 -85T127 -67T134 -47T138 -30L199 297H174Q139 297 123 315T106 358Q106 391 127 407T181 423H221L250 574Z"  />
<glyph unicode="&#x237;" horiz-adv-x="222" d="M39 458Q39 494 59 516T111 538Q143 538 163 516T183 458V-138Q183 -174 163 -196T111 -218Q79 -218 59 -196T39 -138V458Z"  />
<glyph unicode="&#x2C6;" horiz-adv-x="222" d="M111 764L217 721Q239 712 251 698T263 660Q263 636 245 616T202 596Q193 596 179 602T150 614L111 631L72 614Q58 608 44 602T20 596Q-4 596 -22 616T-41 660Q-41 684 -29 698T5 721L111 764Z"  />
<glyph unicode="&#x2DC;" horiz-adv-x="222" d="M-5 605Q-24 605 -39 621T-55 657Q-55 699 -27 722T40 745Q57 745 73 741T104 733T131 724T152 720Q159 720 168 724T188 734T209 744T230 749Q253 749 265 732T277 693Q277 674 269 658T246 631T215 613T179 606Q167 606 151 610T119 618T89 627T66 631Q57 631 50 627T34 618T17 609T-5 605Z"  />
<glyph unicode="&#x2013;" horiz-adv-x="500" d="M440 350Q468 350 484 334T500 290Q500 263 484 247T440 230H60Q32 230 16 246T0 290Q0 317 16 333T60 350H440Z"  />
<glyph unicode="&#x2014;" horiz-adv-x="1000" d="M1000 350Q1028 350 1044 334T1060 290Q1060 263 1044 247T1000 230H0Q-28 230 -44 246T-60 290Q-60 317 -44 333T0 350H1000Z"  />
<glyph unicode="&#x2018;" horiz-adv-x="240" d="M134 468Q125 451 107 443T77 434Q50 434 30 453T9 500Q9 511 12 520T21 540L104 690Q114 707 132 715T162 724Q189 724 210 705T231 658Q231 647 227 638T218 618L134 468Z"  />
<glyph unicode="&#x2019;" horiz-adv-x="240" d="M134 468Q125 451 107 443T77 434Q50 434 30 453T9 500Q9 511 12 520T21 540L104 690Q114 707 132 715T162 724Q189 724 210 705T231 658Q231 647 227 638T218 618L134 468Z"  />
<glyph unicode="&#x201A;" horiz-adv-x="240" d="M134 -100Q125 -117 107 -125T77 -134Q50 -134 30 -115T9 -68Q9 -57 12 -48T21 -28L104 122Q114 139 132 147T162 156Q189 156 210 137T231 90Q231 79 227 70T218 50L134 -100Z"  />
<glyph unicode="&#x201C;" horiz-adv-x="444" d="M338 468Q329 451 311 443T281 434Q254 434 234 453T213 500Q213 511 216 520T225 540L308 690Q318 707 336 715T366 724Q393 724 414 705T435 658Q435 647 431 638T422 618L338 468ZM134 468Q125 451 107 443T77 434Q50 434 30 453T9 500Q9 511 12 520T21 540L104 690Q114 707 132 715T162 724Q189 724 210 705T231 658Q231 647 227 638T218 618L134 468Z"  />
<glyph unicode="&#x201D;" horiz-adv-x="444" d="M338 468Q329 451 311 443T281 434Q254 434 234 453T213 500Q213 511 216 520T225 540L308 690Q318 707 336 715T366 724Q393 724 414 705T435 658Q435 647 431 638T422 618L338 468ZM134 468Q125 451 107 443T77 434Q50 434 30 453T9 500Q9 511 12 520T21 540L104 690Q114 707 132 715T162 724Q189 724 210 705T231 658Q231 647 227 638T218 618L134 468Z"  />
<glyph unicode="&#x201E;" horiz-adv-x="444" d="M338 -100Q329 -117 311 -125T281 -134Q254 -134 234 -115T213 -68Q213 -57 216 -48T225 -28L308 122Q318 139 336 147T366 156Q393 156 414 137T435 90Q435 79 431 70T422 50L338 -100ZM134 -100Q125 -117 107 -125T77 -134Q50 -134 30 -115T9 -68Q9 -57 12 -48T21 -28L104 122Q114 139 132 147T162 156Q189 156 210 137T231 90Q231 79 227 70T218 50L134 -100Z"  />
<glyph unicode="&#x2020;" horiz-adv-x="630" d="M246 376H82Q56 376 41 392T25 439Q25 469 40 485T82 502H246V655Q246 688 264 706T315 724Q347 724 365 706T384 655V502H548Q574 502 589 486T605 439Q605 409 590 393T548 376H384V-149Q384 -182 366 -200T315 -218Q283 -218 265 -200T246 -149V376Z"  />
<glyph unicode="&#x2021;" horiz-adv-x="630" d="M246 6H82Q56 6 41 22T25 69Q25 99 40 115T82 132H246V376H82Q56 376 41 392T25 439Q25 469 40 485T82 502H246V655Q246 688 264 706T315 724Q347 724 365 706T384 655V502H548Q574 502 589 486T605 439Q605 409 590 393T548 376H384V132H548Q574 132 589 116T605 69Q605 39 590 23T548 6H384V-149Q384 -182 366 -200T315 -218Q283 -218 265 -200T246 -149V6Z"  />
<glyph unicode="&#x2022;" horiz-adv-x="500" d="M72 356Q72 393 86 425T124 482T180 520T250 534Q287 534 319 520T376 482T414 426T428 356Q428 319 414 287T376 230T320 192T250 178Q213 178 181 192T124 230T86 286T72 356Z"  />
<glyph unicode="&#x2026;" horiz-adv-x="1000" d="M89 66Q89 98 112 121T167 144Q199 144 222 121T245 66Q245 34 222 11T167 -12Q135 -12 112 11T89 66ZM422 66Q422 98 445 121T500 144Q532 144 555 121T578 66Q578 34 555 11T500 -12Q468 -12 445 11T422 66ZM755 66Q755 98 778 121T833 144Q865 144 888 121T911 66Q911 34 888 11T833 -12Q801 -12 778 11T755 66Z"  />
<glyph unicode="&#x2030;" horiz-adv-x="1074" d="M889 -12Q856 -12 828 1T779 36T747 87T735 149Q735 182 746 211T778 262T827 298T889 311Q922 311 950 298T999 263T1031 211T1043 149Q1043 116 1032 87T1000 36T951 1T889 -12ZM889 90Q914 90 927 107T941 149Q941 173 928 191T889 209Q864 209 851 191T837 149Q837 125 850 108T889 90ZM185 503Q210 503 223 520T237 562Q237 586 224 604T185 622Q160 622 147 604T133 562Q133 538 146 521T185 503ZM480 698Q490 717 499 723T526 730Q549 730 567 714T585 674Q585 668 584 662T577 644L241 15Q230 -1 222 -9T196 -18Q176 -18 158 -2T139 37Q139 48 142 58T149 74L480 698ZM185 401Q152 401 124 414T75 449T43 500T31 562Q31 595 42 624T74 675T123 711T185 724Q218 724 246 711T295 676T327 624T339 562Q339 529 328 500T296 449T247 414T185 401ZM537 -12Q504 -12 476 1T427 36T395 87T383 149Q383 182 394 211T426 262T475 298T537 311Q570 311 598 298T647 263T679 211T691 149Q691 116 680 87T648 36T599 1T537 -12ZM537 90Q562 90 575 107T589 149Q589 173 576 191T537 209Q512 209 499 191T485 149Q485 125 498 108T537 90Z"  />
<glyph unicode="&#x2039;" horiz-adv-x="296" d="M248 162Q255 152 257 144T259 128Q259 102 243 84T199 65Q184 65 171 71T149 90L46 249Q41 257 39 266T37 285Q37 299 45 314T61 341L158 478Q173 495 201 495Q228 495 243 479T259 440Q259 430 257 421T248 402L169 281L248 162Z"  />
<glyph unicode="&#x203A;" horiz-adv-x="296" d="M127 279L48 398Q41 408 39 416T37 432Q37 458 53 476T97 495Q112 495 125 489T147 470L250 311Q255 303 257 294T259 275Q259 261 251 246T235 219L138 82Q123 65 95 65Q68 65 53 81T37 120Q37 130 39 139T48 158L127 279Z"  />
<glyph unicode="&#x20AC;" horiz-adv-x="574" d="M60 354Q60 366 60 376T62 394H54Q32 394 19 407T6 436Q6 452 19 465T54 478H76Q84 514 100 550T143 617Q181 663 236 693T364 724Q398 724 432 716T492 695Q526 678 537 656T549 610Q549 581 530 563T487 545Q476 545 466 549T447 558Q433 565 414 572T368 580Q341 580 317 571T273 540Q262 528 253 512T237 478H405Q427 478 440 465T453 436Q453 420 440 407T405 394H218Q216 386 216 380T215 361Q215 347 215 341T217 326H361Q383 326 396 313T409 284Q409 268 396 255T361 242H234Q245 196 277 167Q295 150 320 141T370 132Q379 132 388 134T406 138Q418 142 429 146T451 158Q459 163 469 168T493 174Q509 174 524 166T549 140Q559 122 559 103Q559 90 554 77Q546 54 529 38T486 11Q470 4 454 0T421 -7Q393 -12 369 -12Q343 -12 314 -7T254 11T195 45T140 100Q118 129 101 164T74 242H54Q32 242 19 255T6 284Q6 300 19 313T54 326H61Q61 336 61 340T60 354Z"  />
<glyph unicode="&#x2122;" horiz-adv-x="1000" d="M166 622H87Q67 622 55 633T42 667Q42 690 54 701T87 712H365Q385 712 397 701T410 667Q410 644 398 633T365 622H286V360Q286 333 270 317T226 300Q198 300 182 316T166 360V622ZM468 656Q468 682 486 700T553 718Q567 718 579 716T602 708T623 690T642 656L713 474L784 656Q793 677 803 689T824 708T847 716T873 718Q921 718 939 700T958 656V360Q958 333 947 317T904 300Q872 300 861 316T850 360V568H848L776 360Q767 334 756 317T713 300Q682 300 671 317T650 360L578 568H576V360Q576 333 565 317T522 300Q490 300 479 316T468 360V656Z"  />

</font>
</defs>
</svg>
